<svg width="198" height="191" viewBox="0 0 198 191" fill="none" xmlns="http://www.w3.org/2000/svg">
<path fill-rule="evenodd" clip-rule="evenodd" d="M54.1333 1.33334C49.8667 2.00002 45.6 3.06667 44.8 3.73334C44 4.40001 41.8667 5.33333 40.1333 5.86667C36.9333 6.8 26.4 13.7334 22.8 17.2C16.1333 23.7334 9.73333 34.4 5.99999 45.2C3.86666 51.6 3.19999 72.5333 5.19999 73.7333C5.73332 74.1333 6.66666 76.9333 7.19999 79.8667C7.59999 82.8 9.86666 88.1333 12 91.7333C14.2667 95.2 16 99.0667 16 100.267C16 101.467 12.4 109.467 7.99999 118.133C-8.58307e-06 133.867 -1.46668 138.533 1.73332 138.533C4.53332 138.667 29.7333 142.267 36.6667 143.6C43.4667 144.933 55.8667 148.533 60.6667 150.533C62.1333 151.2 65.3333 152.133 67.7333 152.533L78.0573 157.6L86.5573 162.533L101.057 170.533L111.057 176.995L130.933 190.4L140.933 170.533L140.945 170.511C150.933 150.8 151.069 150.533 156.533 149.067C159.6 148.4 163.867 146.8 166.267 145.733C168.533 144.667 170.8 143.867 171.2 143.867C174.4 143.867 189.067 128.533 193.467 120.533C198 112.533 198 112.533 198 94.5333C198 79.8667 197.6 75.7333 195.6 72.5333C194.4 70.2667 193.714 67.7133 193.333 66.8C193 66 192.5 65.5 192.267 65.2C191.733 65.2 190.133 63.0667 188.667 60.4C185.2 54 173.867 43.8667 165.867 40.1334C162.267 38.4 158.133 36.4 156.667 35.4667C155.2 34.6667 147.067 33.7333 138.533 33.4667L123.067 32.9333L120.667 28.4C117.067 21.7333 106 11.3333 98.9333 8C95.4667 6.39999 91.6 4.53334 90.4 3.73334C87.6 2.26668 71.7333 -0.133331 66 0C63.8667 0.133331 58.5333 0.666672 54.1333 1.33334ZM81.0667 19.2C88.8 22 95.7333 26.5333 101.6 32.9333C106.667 38.4 112 47.2 112 50.1334C112 50.9334 112.933 52.5333 114 53.7333C115.733 55.4667 116.533 55.4667 120.267 53.4667C127.067 50.1333 148.133 50.5334 156.133 54.2667C162.8 57.3334 176 69.6 176 72.6667C176.5 73.5 176.933 73.9667 177 74.5C178.6 74.5 182.667 89.6 182.667 95.4667C182.667 102.667 179.2 111.6 173.6 118.8C170.933 122.4 168.4 125.2 167.867 125.2C167.467 125.2 165.733 126.4 164 127.867C162.267 129.333 160 130.533 158.667 130.533C157.467 130.533 155.867 131.2 154.933 132.133C154.133 132.933 150.4 133.733 146.667 133.733C139.397 133.866 139.334 133.998 134.398 144.259L134.267 144.533C128.8 156 125.067 162.533 123.867 162.533C123.067 162.533 117.867 159.467 112.267 155.867C106.533 152.133 96.2667 146.4 89.3333 143.067L88.683 142.754C81.988 139.535 75.6999 136.512 74.6667 135.867C73.4667 135.333 70.5333 134.4 68 133.867C65.4667 133.333 62.5333 132.4 61.3333 131.733C59.2 130.533 44.2667 128.133 32 126.933C28 126.667 24.2667 125.867 23.7333 125.333C23.2 124.8 26 118 30 110.133L37.2 95.7333L31.3333 88.4C28 84.4 25.3333 80 25.3333 78.8C25.3333 77.4667 24.6667 75.7333 23.8667 74.9333C22.9333 74 22 68.9333 21.6 63.6C21.0667 55.4667 21.4667 52.6667 23.8667 47.6C25.3333 44.1333 26.6667 40.8 26.6667 40.2667C26.6667 37.4667 40 25.3334 46 22.5334C49.7333 20.9334 53.6 19.0667 54.6667 18.4C58 16.6667 74.9333 17.0667 81.0667 19.2Z" fill="#FEEBD1"/>
</svg>
