<svg width="1200" height="328" viewBox="0 0 1200 328" fill="none" xmlns="http://www.w3.org/2000/svg">
<path d="M934.133 13.4666C929.867 14.1333 925.6 15.2 924.8 15.8666C924 16.5333 921.867 17.4666 920.133 18C916.933 18.9333 906.4 25.8666 902.8 29.3333C896.133 35.8666 889.733 46.5333 886 57.3333C883.867 63.7333 883.2 84.6666 885.2 85.8666C885.733 86.2666 886.667 89.0666 887.2 92C887.6 94.9333 889.867 100.267 892 103.867C894.267 107.333 896 111.2 896 112.4C896 113.6 892.4 121.6 888 130.267C880 146 878.533 150.667 881.733 150.667C884.533 150.8 909.733 154.4 916.667 155.733C923.467 157.067 935.867 160.667 940.667 162.667C942.133 163.333 945.333 164.267 947.733 164.667C953.733 165.867 952.4 168.4 945.2 169.733C926.8 173.067 921.2 174.8 910.933 180.533C903.2 184.933 886.667 203.733 886.667 208.4C886.667 209.333 886 210.8 885.2 211.6C883.733 213.067 883.067 215.333 879.733 231.6C878.267 238.4 879.2 248.267 882.4 262C885.2 273.733 894.267 286.933 905.2 295.067C914.8 302.267 916.933 303.467 926.533 306.667C933.333 309.067 936.933 309.467 952.267 309.067C969.467 308.533 972.667 308 984 302.8C992 299.2 1001.77 289.233 1007.5 281.5C1010.57 277.5 1013 274.3 1013 273.5C1013 272.833 1012.93 269.633 1014 267.5C1016.97 249.1 1022 230.767 1012 210.5L1010.93 202.533L1020.93 182.667C1030.93 162.933 1031.07 162.667 1036.53 161.2C1039.6 160.533 1043.87 158.933 1046.27 157.867C1048.53 156.8 1050.8 156 1051.2 156C1054.4 156 1069.07 140.667 1073.47 132.667C1078 124.667 1078 124.667 1078 106.667C1078 92 1077.6 87.8666 1075.6 84.6666C1074.4 82.4 1073.33 79.8666 1073.33 78.9333C1073.33 78.1333 1072.93 77.3333 1072.27 77.3333C1071.73 77.3333 1070.13 75.2 1068.67 72.5333C1065.2 66.1333 1053.87 56 1045.87 52.2666C1042.27 50.5333 1038.13 48.5333 1036.67 47.6C1035.2 46.8 1027.07 45.8666 1018.53 45.6L1003.07 45.0666L1000.67 40.5333C997.067 33.8666 986 23.4666 978.933 20.1333C975.467 18.5333 971.6 16.6666 970.4 15.8666C967.6 14.4 951.733 12 946 12.1333C943.867 12.2666 938.533 12.8 934.133 13.4666ZM961.067 31.3333C968.8 34.1333 975.733 38.6666 981.6 45.0666C986.667 50.5333 992 59.3333 992 62.2666C992 63.0666 992.933 64.6666 994 65.8666C995.733 67.6 996.533 67.6 1000.27 65.6C1007.07 62.2666 1028.13 62.6666 1036.13 66.4C1042.8 69.4666 1056 81.7333 1056 84.8C1056 85.8666 1056.53 86.6666 1057.07 86.6666C1058.67 86.6666 1062.67 101.733 1062.67 107.6C1062.67 114.8 1059.2 123.733 1053.6 130.933C1050.93 134.533 1048.4 137.333 1047.87 137.333C1047.47 137.333 1045.73 138.533 1044 140C1042.27 141.467 1040 142.667 1038.67 142.667C1037.47 142.667 1035.87 143.333 1034.93 144.267C1034.13 145.067 1030.4 145.867 1026.67 145.867C1019.33 146 1019.33 146.133 1014.27 156.667C1008.8 168.133 1005.07 174.667 1003.87 174.667C1003.07 174.667 997.867 171.6 992.267 168C986.533 164.267 976.267 158.533 969.333 155.2C962.4 151.867 955.733 148.667 954.667 148C953.467 147.467 950.533 146.533 948 146C945.467 145.467 942.533 144.533 941.333 143.867C939.2 142.667 924.267 140.267 912 139.067C908 138.8 904.267 138 903.733 137.467C903.2 136.933 906 130.133 910 122.267L917.2 107.867L911.333 100.533C908 96.5333 905.333 92.1333 905.333 90.9333C905.333 89.6 904.667 87.8666 903.867 87.0666C902.933 86.1333 902 81.0666 901.6 75.7333C901.067 67.6 901.467 64.8 903.867 59.7333C905.333 56.2666 906.667 52.9333 906.667 52.4C906.667 49.6 920 37.4667 926 34.6667C929.733 33.0667 933.6 31.2 934.667 30.5333C938 28.8 954.933 29.2 961.067 31.3333ZM967.5 202.533C974.7 205.733 980.733 213.067 985 220.667C987.667 225.733 987.333 229.067 987.333 241.333V255.333L984.5 263.5C976.367 275.767 964.067 287 951 287C937.133 287 919.433 274.333 912.5 261C908.5 253.133 910.367 228.267 914.5 220.667C919.167 212.133 921.133 206.8 929 202.533C935.267 198.933 940.667 201.333 949.467 201.333C956.8 201.333 963.233 200.667 967.5 202.533Z" fill="#B42C24"/>
<path d="M507.6 113.067C501.6 114.533 495.067 121.867 494.133 128.4C493.2 134.667 494.8 141.867 498.133 145.467C499.333 146.8 503.333 148.933 507.067 150.133C518.933 154.133 531.067 149.2 535.467 138.8C537.733 133.333 537.733 130.133 535.6 123.733C533.067 116.533 528.4 113.467 519.067 112.8C514.8 112.4 509.6 112.533 507.6 113.067Z" fill="#d2b97f"/>
<path d="M731.467 117.2C730.133 119.333 730.4 304.267 731.733 305.6C732.4 306.267 739.467 306.533 747.467 306.4L762 306L762.667 265.333C763.467 222.267 763.733 219.733 770.267 211.067C775.867 203.733 781.467 201.333 792.8 201.333C801.067 201.333 803.6 201.867 807.867 204.533C820.4 212.533 821.6 217.733 822.133 265.867C822.4 287.067 823.067 304.933 823.733 305.6C824.4 306.267 831.467 306.533 839.467 306.4L854 306L854.4 258.667C854.667 216.8 854.4 210.533 852.4 204.667C851.2 201.067 849.333 197.067 848.4 195.867C847.467 194.8 846.667 193.2 846.667 192.533C846.667 190.4 832.933 178.133 828 175.867C819.2 171.733 811.333 170 802.667 170.133C789.067 170.267 779.733 174.267 768.4 184.8C766.4 186.533 764.4 187.6 763.733 186.933C763.2 186.4 762.533 170.267 762.4 151.333L762 116.667L747.067 116.267C738.4 116.133 731.867 116.4 731.467 117.2Z" fill="#d2b97f"/>
<path d="M82.6666 127.333C80.8 128.4 78.1333 129.2 76.5333 129.333C72.5333 129.333 60.1333 136 50.9333 143.067C40 151.467 32.2666 160.8 26.8 171.6C24.2666 176.533 21.6 181.867 20.9333 183.333C19.3333 186.267 17.8666 193.067 15.7333 207.6C14.6666 214.667 14.6666 220 15.7333 226.933C18.2666 244.267 21.3333 255.467 24.6666 260.133C25.4666 261.2 27.2 264.4 28.6666 267.333C30.1333 270.267 36.4 277.867 42.6666 284.133C51.4666 293.067 56.2666 296.667 64.1333 300.533C69.6 303.2 75.0666 305.333 76.2666 305.333C77.3333 305.333 80.5333 306.267 83.0666 307.333C90.1333 310.267 123.6 310.133 132.667 307.2C146.667 302.667 156.4 296.8 167.6 286.267C173.6 280.4 178.667 274.667 178.667 273.467C178.667 272.133 174.933 268.4 170.267 265.067C165.733 261.733 160.8 257.733 159.467 256.133C158 254.533 156.4 253.333 155.867 253.333C155.333 253.333 152.267 256.133 149.067 259.467C142.933 266 136 271.067 127.333 275.067C119.867 278.533 95.4666 278.667 87.4666 275.2C69.6 267.467 57.3333 251.067 52.8 229.333C50.5333 218.667 50.5333 217.2 52.5333 206.667C56.6666 185.333 67.7333 169.733 84.5333 161.6C92.6666 157.6 94.2666 157.333 107.2 157.333C118.267 157.333 122.133 157.867 126.8 160C135.6 164.133 137.333 165.333 145.733 173.6C150 177.867 153.733 181.333 154.133 181.333C155.867 181.333 178.667 161.467 178.667 160.133C178.533 158.8 166.267 146.267 160.667 141.867C154.4 136.933 142.133 130.667 132.667 127.467C123.733 124.533 87.7333 124.4 82.6666 127.333Z" fill="#d2b97f"/>
<path d="M256.667 169.867C256 170.133 251.733 171.067 247.333 172.133C240.133 173.6 235.333 175.467 229.333 178.8C228.267 179.467 226.4 180.4 225.333 180.933C217.067 184.533 202 202.4 198 213.333C194.533 222.533 193.067 235.467 194 248.667C195.2 265.6 200 276.267 212.667 289.867C218.533 296.133 232.667 305.333 236.4 305.333C237.467 305.333 240.133 306.267 242.133 307.333C247.6 310.133 280.4 310.133 285.867 307.333C287.867 306.267 290.4 305.333 291.2 305.333C293.6 305.333 301.733 300.933 308.8 295.6C320.4 287.2 323.867 282.267 332.533 262.267C335.6 255.2 335.6 226.267 332.533 219.067C325.733 203.067 321.867 197.333 311.467 187.733C303.867 180.667 294 175.333 282.8 172.533C275.467 170.533 259.2 168.933 256.667 169.867ZM279.333 204C298.4 213.733 306.933 234 300.267 253.867C288.8 287.733 245.733 291.067 230.8 259.333C227.333 252 226.667 249.067 226.667 240.533C226.667 232.133 227.333 229.2 230.667 222.533C234.8 214.133 240.4 208.267 248.133 204.133C254.8 200.533 272.4 200.4 279.333 204Z" fill="#d2b97f"/>
<path d="M632 170.133C620.133 172.133 610.267 177.2 604.4 184.667C602.4 187.2 600.267 189.333 599.733 189.333C599.2 189.333 598.667 185.867 598.4 181.6L598 174H582.667H567.333V240V306L581.867 306.4C591.333 306.667 596.933 306.267 598.133 305.2C599.6 304 600 296.533 600 265.733C600 217.2 600.933 213.333 614.667 204.667C619.067 201.867 621.6 201.333 630 201.333C640.4 201.333 643.467 202.4 650.4 208.533C657.867 215.067 658 216 658.667 262.667L659.333 306L675.2 306.4C686.133 306.667 691.6 306.267 692.933 305.2C694.533 303.733 694.8 296.933 694.267 259.467C693.733 213.6 693.067 208.533 687.333 197.2C684.267 191.467 672.533 179.733 666.667 176.8C657.867 172.4 639.867 168.933 632 170.133Z" fill="#d2b97f"/>
<path d="M355.6 174.267C355.067 174.667 354.667 181.067 354.667 188.267V201.333H386.533C404.133 201.333 418.8 201.867 419.2 202.533C420.133 203.867 416.4 208.8 405.867 220.8C401.467 225.867 394.267 234.133 390 239.333C385.6 244.4 381.733 248.933 381.2 249.333C380.8 249.733 375.333 256 369.333 263.333C363.2 270.667 357.333 277.333 356.4 278C355.067 279.067 354.667 282.667 354.933 292.667L355.333 306L410.667 306.4C441.067 306.533 467.333 306.4 469.067 306C471.867 305.333 472 304.667 472 292.133C472 281.333 471.6 278.8 469.867 278.133C468.667 277.733 452.533 277.333 434 277.333C415.333 277.333 399.867 276.8 399.467 276.267C399.2 275.733 402.933 271.067 407.867 266C412.667 260.8 425.2 247.333 435.467 236C445.733 224.667 457.6 211.733 461.733 207.333L469.333 199.333L469.067 186.667L468.667 174L412.533 173.6C381.733 173.467 356 173.733 355.6 174.267Z" fill="#d2b97f"/>
<path d="M499.333 174.933C498.933 175.867 498.8 205.733 498.933 241.333L499.333 306L513.867 306.4C521.867 306.533 528.933 306.267 529.6 305.6C530.8 304.4 531.2 176.533 530 174.533C528.667 172.533 500 173.067 499.333 174.933Z" fill="#d2b97f"/>
<path d="M1051.6 174.133C1051.07 174.667 1050.67 196.8 1050.67 223.2C1050.67 263.333 1051.07 272 1052.67 275.2C1053.73 277.2 1054.67 279.733 1054.67 280.8C1054.67 283.2 1061.73 293.333 1065.6 296.667C1071.87 301.867 1077.2 305.333 1079.07 305.333C1080.13 305.333 1082.8 306.267 1084.8 307.333C1087.6 308.8 1092.93 309.333 1103.47 309.333C1121.2 309.333 1126.67 307.467 1137.87 297.2C1141.87 293.6 1145.47 291.2 1146 291.867C1146.4 292.667 1146.67 295.6 1146.53 298.4C1146.27 301.2 1146.67 304.133 1147.2 305.067C1148.67 307.467 1175.2 307.2 1177.2 304.8C1178.27 303.6 1178.53 285.067 1178.4 238.533L1178 174H1161.33H1144.67L1144 217.333C1143.33 259.733 1143.2 260.8 1140.27 265.6C1129.73 282.267 1105.73 285.467 1092.4 272.133C1084.27 263.867 1083.73 260.133 1082.8 214.667L1082 174L1067.2 173.6C1059.2 173.467 1052.13 173.733 1051.6 174.133Z" fill="#d2b97f"/>
<path fill-rule="evenodd" clip-rule="evenodd" d="M909.181 179.845C919.546 174.046 918.998 172.186 937.575 168.814L944.137 167.544L950.699 167L955.747 168.308L960.29 170.331L967.357 173.911L974.424 177.412L981.063 181.458L988.558 186.01L993.606 189.551L1000.17 194.103L1006 198.101L1010.5 202L1013.91 209.922C1024 230.423 1024.68 251.328 1015.79 268.727C1014.72 270.885 1013.91 273.178 1013.91 273.852C1013.91 274.661 1011.35 278.573 1008.25 282.619C1002.47 290.442 991.024 299.883 982.948 303.524C971.506 308.784 968.275 309.324 950.91 309.863C935.43 310.268 931.796 309.863 924.931 307.436C915.239 304.199 913.085 302.985 903.393 295.702C892.355 287.474 883.202 274.122 880.375 262.253C877.144 248.361 876.202 238.38 877.683 231.502C881.048 215.047 882.048 212.52 883.057 211.002C883.418 209.723 884.067 208.979 884.682 208.034C884.682 203.313 901.374 184.296 909.181 179.845ZM983.082 221.251C978.775 213.564 971.64 206.82 964.371 203.583C960.064 201.695 955.487 200.886 948.084 200.886C939.199 200.886 936.776 201.425 930.45 205.067C922.508 209.383 920.085 211.81 915.373 220.442C911.2 228.13 910.931 251.733 914.97 259.69C921.969 273.178 935.161 281.81 949.16 281.81C962.352 281.81 972.852 275.74 981.063 263.332L986.313 255.5V241.348C986.313 228.939 985.774 226.377 983.082 221.251Z" fill="#d2b97f"/>
</svg>
