<?xml version="1.0" encoding="UTF-8"?>
<!DOCTYPE svg PUBLIC "-//W3C//DTD SVG 1.1//EN" "http://www.w3.org/Graphics/SVG/1.1/DTD/svg11.dtd">
<svg xmlns="http://www.w3.org/2000/svg" version="1.1" width="779px" height="201px" style="shape-rendering:geometricPrecision; text-rendering:geometricPrecision; image-rendering:optimizeQuality; fill-rule:evenodd; clip-rule:evenodd" xmlns:xlink="http://www.w3.org/1999/xlink">
<g><path style="opacity:0.004" fill="#d5c084" d="M 601.5,7.5 C 600.833,6.16667 600.833,6.16667 601.5,7.5 Z"/></g>
<g><path style="opacity:0.012" fill="#e0cd9b" d="M 654.5,9.5 C 657.5,10.5 659.5,12.5 660.5,15.5C 658.167,13.8333 656.167,11.8333 654.5,9.5 Z"/></g>
<g><path style="opacity:0.012" fill="#d6c188" d="M 668.5,25.5 C 669.601,24.4017 670.934,24.235 672.5,25C 671.207,25.49 669.873,25.6567 668.5,25.5 Z"/></g>
<g><path style="opacity:0.024" fill="#e7d9b1" d="M 667.5,25.5 C 667.833,25.5 668.167,25.5 668.5,25.5C 671.833,26.1667 675.167,26.8333 678.5,27.5C 674.833,27.5 671.167,27.5 667.5,27.5C 667.5,26.8333 667.5,26.1667 667.5,25.5 Z"/></g>
<g><path style="opacity:0.937" fill="#d0b471" d="M 667.5,27.5 C 671.167,27.5 674.833,27.5 678.5,27.5C 681.059,27.1984 683.393,27.5318 685.5,28.5C 685.918,29.2216 686.584,29.7216 687.5,30C 687,30.1667 686.5,30.3333 686,30.5C 679.448,30.2298 673.282,29.2298 667.5,27.5 Z"/></g>
<g><path style="opacity:0.986" fill="#cdb168" d="M 584.5,54.5 C 583.549,53.0813 583.216,51.4147 583.5,49.5C 583.334,45.4862 583.501,41.4862 584,37.5C 584.771,43.8835 585.438,50.2169 586,56.5C 585.722,55.5842 585.222,54.9175 584.5,54.5 Z"/></g>
<g><path style="opacity:0.994" fill="#bd0101" d="M 624.5,-0.5 C 626.5,-0.5 628.5,-0.5 630.5,-0.5C 635.884,0.349626 641.217,1.84963 646.5,4C 649.621,5.30632 652.287,7.13966 654.5,9.5C 656.167,11.8333 658.167,13.8333 660.5,15.5C 663.605,18.2749 665.938,21.6082 667.5,25.5C 667.5,26.1667 667.5,26.8333 667.5,27.5C 673.282,29.2298 679.448,30.2298 686,30.5C 686.5,30.3333 687,30.1667 687.5,30C 686.584,29.7216 685.918,29.2216 685.5,28.5C 687.898,28.2594 689.898,28.9261 691.5,30.5C 690.448,30.3505 689.448,30.5172 688.5,31C 712.96,42.3767 719.127,60.21 707,84.5C 699.729,93.5956 690.229,98.0956 678.5,98C 677.158,100.015 676.658,102.182 677,104.5C 677.383,103.944 677.883,103.611 678.5,103.5C 674.956,112.926 671.122,122.259 667,131.5C 662.665,128.331 658.832,124.664 655.5,120.5C 656.239,120.631 656.906,120.464 657.5,120C 644.01,107.254 628.01,100.587 609.5,100C 610.737,100.232 611.737,100.732 612.5,101.5C 603.182,100.849 593.849,100.349 584.5,100C 583.062,99.7811 581.729,99.2811 580.5,98.5C 584.167,88.5 587.833,78.5 591.5,68.5C 588.096,64.3579 585.762,59.6912 584.5,54.5C 585.222,54.9175 585.722,55.5842 586,56.5C 585.438,50.2169 584.771,43.8835 584,37.5C 583.501,41.4862 583.334,45.4862 583.5,49.5C 581.208,32.0705 587.208,18.0705 601.5,7.5C 608.712,3.20835 616.379,0.541683 624.5,-0.5 Z M 629.5,14.5 C 638.195,15.8504 645.529,19.8504 651.5,26.5C 651.427,28.0269 652.094,29.0269 653.5,29.5C 654.835,33.1715 656.168,36.8382 657.5,40.5C 657.5,41.8333 657.5,43.1667 657.5,44.5C 658.833,44.5 660.167,44.5 661.5,44.5C 661.5,44.1667 661.5,43.8333 661.5,43.5C 663.579,43.0293 665.579,42.3627 667.5,41.5C 673.203,41.3748 678.87,41.7081 684.5,42.5C 684.5,42.8333 684.5,43.1667 684.5,43.5C 698.139,48.5117 702.972,58.1784 699,72.5C 695.772,79.2347 690.605,83.5681 683.5,85.5C 679.563,85.7935 675.73,85.4601 672,84.5C 671.283,85.0442 670.783,85.7109 670.5,86.5C 666.871,93.5265 663.704,100.86 661,108.5C 649.22,99.3603 636.053,93.027 621.5,89.5C 619.236,88.7814 616.903,88.448 614.5,88.5C 615.463,87.6365 615.463,86.9698 614.5,86.5C 612.591,87.3482 610.591,87.6816 608.5,87.5C 606.5,87.5 604.5,87.5 602.5,87.5C 602.082,86.7784 601.416,86.2784 600.5,86C 603.593,78.891 606.593,71.7243 609.5,64.5C 606.542,62.0443 603.709,59.3777 601,56.5C 599.704,53.4289 598.538,50.4289 597.5,47.5C 597.5,47.1667 597.5,46.8333 597.5,46.5C 597.303,35.7304 601.303,26.8971 609.5,20C 612.391,18.7258 615.058,17.2258 617.5,15.5C 621.5,15.1667 625.5,14.8333 629.5,14.5 Z"/></g>
<g><path style="opacity:0.996" fill="#c9aa60" d="M 597.5,46.5 C 597.5,46.8333 597.5,47.1667 597.5,47.5C 597.657,48.8734 597.49,50.2068 597,51.5C 595.466,47.2891 595.133,42.9558 596,38.5C 596.183,41.3647 596.683,44.0314 597.5,46.5 Z"/></g>
<g><path style="opacity:0.035" fill="#e5d1a0" d="M 657.5,40.5 C 658.404,41.209 658.737,42.209 658.5,43.5C 659.5,43.5 660.5,43.5 661.5,43.5C 661.5,43.8333 661.5,44.1667 661.5,44.5C 660.167,44.5 658.833,44.5 657.5,44.5C 657.5,43.1667 657.5,41.8333 657.5,40.5 Z"/></g>
<g><path style="opacity:0.106" fill="#e7d8af" d="M 667.5,41.5 C 667.5,41.1667 667.5,40.8333 667.5,40.5C 673.212,40.313 678.879,40.6463 684.5,41.5C 684.5,41.8333 684.5,42.1667 684.5,42.5C 678.87,41.7081 673.203,41.3748 667.5,41.5 Z"/></g>
<g><path style="opacity:0.973" fill="#c6a659" d="M 684.5,41.5 C 678.879,40.6463 673.212,40.313 667.5,40.5C 669.054,39.7733 671.387,39.44 674.5,39.5C 677.167,39.6667 679.833,39.8333 682.5,40C 684.343,40.1587 685.009,40.6587 684.5,41.5 Z"/></g>
<g><path style="opacity:0.016" fill="#e3d0a3" d="M 651.5,26.5 C 652.906,26.9731 653.573,27.9731 653.5,29.5C 652.094,29.0269 651.427,28.0269 651.5,26.5 Z"/></g>
<g><path style="opacity:0.992" fill="#cfb16a" d="M 629.5,14.5 C 625.5,14.8333 621.5,15.1667 617.5,15.5C 615.621,15.6068 615.288,15.1068 616.5,14C 622.541,12.1045 628.541,12.1045 634.5,14C 632.866,14.4935 631.199,14.6602 629.5,14.5 Z"/></g>
<g><path style="opacity:0.004" fill="#d3c186" d="M 716.5,59.5 C 717.833,60.1667 717.833,60.1667 716.5,59.5 Z"/></g>
<g><path style="opacity:0.961" fill="#d2b775" d="M 691.5,30.5 C 709.055,37.9333 716.888,51.2667 715,70.5C 711.112,86.8901 700.946,96.5567 684.5,99.5C 682.5,99.5 680.5,99.5 678.5,99.5C 678.5,100.5 678.5,101.5 678.5,102.5C 678.5,102.833 678.5,103.167 678.5,103.5C 677.883,103.611 677.383,103.944 677,104.5C 676.658,102.182 677.158,100.015 678.5,98C 690.229,98.0956 699.729,93.5956 707,84.5C 719.127,60.21 712.96,42.3767 688.5,31C 689.448,30.5172 690.448,30.3505 691.5,30.5 Z"/></g>
<g><path style="opacity:0.004" fill="#d3bf85" d="M 464.5,67.5 C 465.833,68.1667 465.833,68.1667 464.5,67.5 Z"/></g>
<g><path style="opacity:0.422" fill="#e2d2a2" d="M 318.5,69.5 C 319.793,68.8418 321.293,68.5085 323,68.5C 325.544,68.336 327.71,69.0027 329.5,70.5C 325.881,69.7564 322.215,69.423 318.5,69.5 Z"/></g>
<g><path style="opacity:0.008" fill="#d6c388" d="M 588.5,68.5 C 589.833,69.1667 589.833,69.1667 588.5,68.5 Z"/></g>
<g><path style="opacity:0.008" fill="#d4c084" d="M 49.5,70.5 C 50.8333,71.1667 50.8333,71.1667 49.5,70.5 Z"/></g>
<g><path style="opacity:0.008" fill="#d3bf83" d="M 51.5,70.5 C 52.8333,71.1667 52.8333,71.1667 51.5,70.5 Z"/></g>
<g><path style="opacity:0.004" fill="#d3c084" d="M 75.5,70.5 C 76.8333,71.1667 76.8333,71.1667 75.5,70.5 Z"/></g>
<g><path style="opacity:0.304" fill="#e6d5a7" d="M 71.5,72.5 C 66.1667,72.5 60.8333,72.5 55.5,72.5C 59.0306,71.7704 62.6973,71.1037 66.5,70.5C 68.0421,71.7468 69.5421,71.7468 71,70.5C 71.4643,71.0944 71.631,71.7611 71.5,72.5 Z"/></g>
<g><path style="opacity:0.993" fill="#d1b97d" d="M 318.5,69.5 C 322.215,69.423 325.881,69.7564 329.5,70.5C 336.748,75.2581 338.248,81.5914 334,89.5C 332.871,91.1412 331.371,92.1412 329.5,92.5C 330.85,91.3501 330.684,90.6834 329,90.5C 325.805,91.5569 322.805,92.2236 320,92.5C 318.333,91.5 316.667,90.5 315,89.5C 314.536,90.0944 314.369,90.7611 314.5,91.5C 312.738,90.7377 311.738,89.4044 311.5,87.5C 310.9,83.5033 311.566,79.5033 313.5,75.5C 313.333,75.1667 313.167,74.8333 313,74.5C 312.292,75.3805 311.458,76.0472 310.5,76.5C 311.905,72.7641 314.571,70.4308 318.5,69.5 Z"/></g>
<g><path style="opacity:0.996" fill="#d1b97d" d="M 480.5,70.5 C 482.321,85.8013 483.155,101.468 483,117.5C 483.717,116.956 484.217,116.289 484.5,115.5C 489.041,111.393 494.374,108.56 500.5,107C 517.195,103.369 530.695,108.202 541,121.5C 544.868,127.972 546.701,134.972 546.5,142.5C 545.629,138.979 544.795,135.312 544,131.5C 544.433,153.47 544.599,175.47 544.5,197.5C 538.463,197.829 532.463,197.496 526.5,196.5C 526.613,180.549 526.779,164.549 527,148.5C 526.895,144.63 526.062,140.963 524.5,137.5C 523.893,137.624 523.56,137.957 523.5,138.5C 520.662,132.99 516.328,129.323 510.5,127.5C 511.873,127.657 513.207,127.49 514.5,127C 506.422,124.838 498.422,125.171 490.5,128C 485.298,131.906 482.298,137.073 481.5,143.5C 481.667,161.17 481.5,178.836 481,196.5C 475.583,197.309 470.083,197.809 464.5,198C 470.491,198.499 476.491,198.666 482.5,198.5C 482.5,180.5 482.5,162.5 482.5,144.5C 482.833,144.5 483.167,144.5 483.5,144.5C 484.134,163.402 483.467,182.069 481.5,200.5C 481.167,200.5 480.833,200.5 480.5,200.5C 480.167,199.167 479.833,199.167 479.5,200.5C 476.167,200.5 472.833,200.5 469.5,200.5C 468.833,199.167 468.167,199.167 467.5,200.5C 467.167,200.5 466.833,200.5 466.5,200.5C 465.833,199.167 465.167,199.167 464.5,200.5C 463.5,200.5 462.5,200.5 461.5,200.5C 461.5,200.167 461.5,199.833 461.5,199.5C 461.5,198.833 461.5,198.167 461.5,197.5C 462.333,156.002 462.833,114.335 463,72.5C 468.933,71.8524 474.766,71.1858 480.5,70.5 Z"/></g>
<g><path style="opacity:0.995" fill="#d1b97c" d="M 72.5,72.5 C 80.6054,73.4243 88.272,75.7576 95.5,79.5C 98.7365,82.7971 102.403,85.6304 106.5,88C 110.049,91.7108 113.382,95.5442 116.5,99.5C 110.955,104.193 105.122,108.526 99,112.5C 96.0288,109.364 92.8621,106.364 89.5,103.5C 89.0269,102.094 88.0269,101.427 86.5,101.5C 78.3592,96.3002 69.3592,93.9669 59.5,94.5C 63.1882,93.238 67.0215,93.238 71,94.5C 72.7618,94.0556 72.5951,93.5556 70.5,93C 61.3631,91.7459 52.6964,93.0792 44.5,97C 45.448,97.4828 46.448,97.6495 47.5,97.5C 35.4881,103.863 27.4881,113.53 23.5,126.5C 23.6567,125.127 23.49,123.793 23,122.5C 19.7066,132.153 19.7066,141.819 23,151.5C 23.49,150.207 23.6567,148.873 23.5,147.5C 34.3153,176.079 53.982,185.412 82.5,175.5C 88.7338,171.772 94.2338,167.105 99,161.5C 104.668,165.673 110.168,170.007 115.5,174.5C 113.527,177.64 111.36,180.64 109,183.5C 104.934,187.077 100.768,190.411 96.5,193.5C 90.6044,196.24 84.6044,198.574 78.5,200.5C 76.1667,200.5 73.8333,200.5 71.5,200.5C 42.7897,201.395 21.2897,189.395 7,164.5C 6.53566,165.094 6.36899,165.761 6.5,166.5C 3.66567,162.336 1.99901,157.669 1.5,152.5C 0.914521,142.275 1.58119,131.941 3.5,121.5C 3.33333,120.833 3.16667,120.167 3,119.5C 2.76791,120.737 2.26791,121.737 1.5,122.5C 1.8606,118.085 3.19393,114.085 5.5,110.5C 5.35055,111.552 5.51722,112.552 6,113.5C 9.65434,104.353 15.1543,96.5201 22.5,90C 21.9056,89.5357 21.2389,89.369 20.5,89.5C 26.1036,83.569 32.7702,79.2356 40.5,76.5C 39.537,77.3635 39.537,78.0302 40.5,78.5C 51.8588,74.4603 63.5255,72.9603 75.5,74C 74.2625,73.7679 73.2625,73.2679 72.5,72.5 Z"/></g>
<g><path style="opacity:0.98" fill="#cfb470" d="M 55.5,72.5 C 60.8333,72.5 66.1667,72.5 71.5,72.5C 71.8333,72.5 72.1667,72.5 72.5,72.5C 73.2625,73.2679 74.2625,73.7679 75.5,74C 63.5255,72.9603 51.8588,74.4603 40.5,78.5C 39.537,78.0302 39.537,77.3635 40.5,76.5C 45.0783,73.9802 50.0783,72.6468 55.5,72.5 Z"/></g>
<g><path style="opacity:0.004" fill="#d7c288" d="M 484.5,75.5 C 485.833,76.1667 485.833,76.1667 484.5,75.5 Z"/></g>
<g><path style="opacity:0.004" fill="#d7c188" d="M 95.5,78.5 C 96.8333,79.1667 96.8333,79.1667 95.5,78.5 Z"/></g>
<g><path style="opacity:0.988" fill="#c8a95e" d="M 311.5,87.5 C 310.676,84.2356 310.342,80.9023 310.5,77.5C 310.5,77.1667 310.5,76.8333 310.5,76.5C 311.458,76.0472 312.292,75.3805 313,74.5C 313.167,74.8333 313.333,75.1667 313.5,75.5C 311.566,79.5033 310.9,83.5033 311.5,87.5 Z"/></g>
<g><path style="opacity:0.18" fill="#e6d6a9" d="M 683.5,85.5 C 683.5,85.8333 683.5,86.1667 683.5,86.5C 679.167,86.5 674.833,86.5 670.5,86.5C 670.783,85.7109 671.283,85.0442 672,84.5C 675.73,85.4601 679.563,85.7935 683.5,85.5 Z"/></g>
<g><path style="opacity:0.494" fill="#e0cf9e" d="M 310.5,77.5 C 310.342,80.9023 310.676,84.2356 311.5,87.5C 310.883,87.3893 310.383,87.056 310,86.5C 309.195,83.3035 309.362,80.3035 310.5,77.5 Z"/></g>
<g><path style="opacity:0.071" fill="#e6d3a4" d="M 614.5,88.5 C 612.265,88.7947 610.265,88.4614 608.5,87.5C 610.591,87.6816 612.591,87.3482 614.5,86.5C 615.463,86.9698 615.463,87.6365 614.5,88.5 Z"/></g>
<g><path style="opacity:1" fill="#caa85b" d="M 670.5,86.5 C 674.833,86.5 679.167,86.5 683.5,86.5C 680.667,87.3118 676.5,87.9785 671,88.5C 670.536,87.9056 670.369,87.2389 670.5,86.5 Z"/></g>
<g><path style="opacity:0.994" fill="#cfb16c" d="M 602.5,87.5 C 604.5,87.5 606.5,87.5 608.5,87.5C 610.265,88.4614 612.265,88.7947 614.5,88.5C 616.903,88.448 619.236,88.7814 621.5,89.5C 621.918,90.2216 622.584,90.7216 623.5,91C 615.863,90.3469 608.197,89.5136 600.5,88.5C 600.957,87.7025 601.624,87.3691 602.5,87.5 Z"/></g>
<g><path style="opacity:0.98" fill="#d3b774" d="M 329.5,92.5 C 327.71,93.9973 325.544,94.664 323,94.5C 319.642,94.7271 316.809,93.7271 314.5,91.5C 314.369,90.7611 314.536,90.0944 315,89.5C 316.667,90.5 318.333,91.5 320,92.5C 322.805,92.2236 325.805,91.5569 329,90.5C 330.684,90.6834 330.85,91.3501 329.5,92.5 Z"/></g>
<g><path style="opacity:0.004" fill="#d9c288" d="M 484.5,91.5 C 485.525,91.8966 485.692,92.5632 485,93.5C 484.536,92.9056 484.369,92.2389 484.5,91.5 Z"/></g>
<g><path style="opacity:0.976" fill="#d2b56e" d="M 59.5,94.5 C 55.4346,95.2463 51.4346,96.2463 47.5,97.5C 46.448,97.6495 45.448,97.4828 44.5,97C 52.6964,93.0792 61.3631,91.7459 70.5,93C 72.5951,93.5556 72.7618,94.0556 71,94.5C 67.0215,93.238 63.1882,93.238 59.5,94.5 Z"/></g>
<g><path style="opacity:0.004" fill="#dac289" d="M 74.5,98.5 C 74.8966,97.475 75.5632,97.3083 76.5,98C 75.9056,98.4643 75.2389,98.631 74.5,98.5 Z"/></g>
<g><path style="opacity:0.012" fill="#d9c389" d="M 578.5,97.5 C 579.833,98.1667 579.833,98.1667 578.5,97.5 Z"/></g>
<g><path style="opacity:0.992" fill="#d1b671" d="M 20.5,89.5 C 21.2389,89.369 21.9056,89.5357 22.5,90C 15.1543,96.5201 9.65434,104.353 6,113.5C 5.51722,112.552 5.35055,111.552 5.5,110.5C 8.78502,102.259 13.785,95.2588 20.5,89.5 Z"/></g>
<g><path style="opacity:0.027" fill="#e5d3a7" d="M 684.5,99.5 C 682.361,100.158 680.361,101.158 678.5,102.5C 678.5,101.5 678.5,100.5 678.5,99.5C 680.5,99.5 682.5,99.5 684.5,99.5 Z"/></g>
<g><path style="opacity:0.004" fill="#dac388" d="M 82.5,100.5 C 83.8333,101.167 83.8333,101.167 82.5,100.5 Z"/></g>
<g><path style="opacity:0.004" fill="#d9c386" d="M 580.5,101.5 C 581.251,100.427 582.251,100.26 583.5,101C 582.552,101.483 581.552,101.649 580.5,101.5 Z"/></g>
<g><path style="opacity:0.012" fill="#d8c289" d="M 86.5,101.5 C 85.8333,102.167 85.8333,102.167 86.5,101.5 Z"/></g>
<g><path style="opacity:0.004" fill="#dac488" d="M 484.5,101.5 C 485.833,102.167 485.833,102.167 484.5,101.5 Z"/></g>
<g><path style="opacity:0.004" fill="#dcc48a" d="M 589.5,101.5 C 590.833,102.167 590.833,102.167 589.5,101.5 Z"/></g>
<g><path style="opacity:0.004" fill="#dfc78c" d="M 593.5,102.5 C 594.601,101.402 595.934,101.235 597.5,102C 596.207,102.49 594.873,102.657 593.5,102.5 Z"/></g>
<g><path style="opacity:0.004" fill="#dcc489" d="M 604.5,101.5 C 605.833,102.167 605.833,102.167 604.5,101.5 Z"/></g>
<g><path style="opacity:0.004" fill="#d9c588" d="M 89.5,103.5 C 88.8333,104.167 88.8333,104.167 89.5,103.5 Z"/></g>
<g><path style="opacity:0.008" fill="#d8c083" d="M 407.5,104.5 C 408.833,105.167 408.833,105.167 407.5,104.5 Z"/></g>
<g><path style="opacity:0.004" fill="#dbc488" d="M 605.5,105.5 C 605.897,104.475 606.563,104.308 607.5,105C 606.906,105.464 606.239,105.631 605.5,105.5 Z"/></g>
<g><path style="opacity:0.008" fill="#ddc789" d="M 624.5,104.5 C 623.833,105.167 623.833,105.167 624.5,104.5 Z"/></g>
<g><path style="opacity:0.004" fill="#dbc386" d="M 393.5,105.5 C 394.833,106.167 394.833,106.167 393.5,105.5 Z"/></g>
<g><path style="opacity:0.004" fill="#dbc688" d="M 618.5,105.5 C 619.833,106.167 619.833,106.167 618.5,105.5 Z"/></g>
<g><path style="opacity:0.004" fill="#dec889" d="M 626.5,105.5 C 627.833,106.167 627.833,106.167 626.5,105.5 Z"/></g>
<g><path style="opacity:0.469" fill="#e6d39f" d="M 297.5,109.5 C 273.908,108.511 250.241,108.177 226.5,108.5C 226.5,114.5 226.5,120.5 226.5,126.5C 226.5,126.833 226.5,127.167 226.5,127.5C 225.509,121.021 225.176,114.354 225.5,107.5C 249.857,106.843 273.857,107.51 297.5,109.5 Z"/></g>
<g><path style="opacity:0.004" fill="#dfc78d" d="M 626.5,107.5 C 627.833,108.167 627.833,108.167 626.5,107.5 Z"/></g>
<g><path style="opacity:0.409" fill="#e5d5a6" d="M 778.5,107.5 C 778.5,108.167 778.5,108.833 778.5,109.5C 772.591,108.545 766.591,108.211 760.5,108.5C 760.167,108.5 759.833,108.5 759.5,108.5C 758.833,108.5 758.167,108.5 757.5,108.5C 757.783,107.711 758.283,107.044 759,106.5C 765.41,107.478 771.91,107.811 778.5,107.5 Z"/></g>
<g><path style="opacity:0.986" fill="#c9a656" d="M 297.5,109.5 C 296.993,113.604 296.16,117.604 295,121.5C 295.72,117.654 295.553,113.821 294.5,110C 272.5,109.333 250.5,109.333 228.5,110C 227.529,115.072 227.195,120.238 227.5,125.5C 227.5,126.167 227.167,126.5 226.5,126.5C 226.5,120.5 226.5,114.5 226.5,108.5C 250.241,108.177 273.908,108.511 297.5,109.5 Z"/></g>
<g><path style="opacity:1" fill="#c7a759" d="M 501.5,107.5 C 506.511,107.334 511.511,107.501 516.5,108C 510.479,108.592 504.479,108.925 498.5,109C 499.737,108.768 500.737,108.268 501.5,107.5 Z"/></g>
<g><path style="opacity:0.996" fill="#d1b97c" d="M 177.5,107.5 C 172.489,107.334 167.489,107.501 162.5,108C 170.841,108.012 179.008,109.178 187,111.5C 187.765,111.43 188.265,111.097 188.5,110.5C 204.606,116.277 214.272,127.61 217.5,144.5C 217.5,150.833 217.5,157.167 217.5,163.5C 213.925,181.079 203.592,192.746 186.5,198.5C 187.85,197.35 187.684,196.683 186,196.5C 170.11,201.883 155.277,199.883 141.5,190.5C 140.537,190.97 140.537,191.637 141.5,192.5C 129.808,185.144 123.141,174.477 121.5,160.5C 122.268,161.263 122.768,162.263 123,163.5C 123.667,157.167 123.667,150.833 123,144.5C 122.768,145.737 122.268,146.737 121.5,147.5C 121.5,145.833 121.5,144.167 121.5,142.5C 122.641,139.746 123.975,137.079 125.5,134.5C 128.805,132.346 131.305,129.346 133,125.5C 140.402,117.05 149.568,111.55 160.5,109C 157.843,108.825 155.176,108.992 152.5,109.5C 154.877,108.113 157.543,107.279 160.5,107C 166.349,106.182 172.015,106.348 177.5,107.5 Z M 182.5,130.5 C 184.816,131.806 187.15,133.139 189.5,134.5C 189.427,136.027 190.094,137.027 191.5,137.5C 201.356,157.274 196.356,171.608 176.5,180.5C 170.797,180.625 165.13,180.292 159.5,179.5C 151.584,175.332 146.251,168.999 143.5,160.5C 143.5,156.167 143.5,151.833 143.5,147.5C 148.829,131.823 159.829,125.323 176.5,128C 178.852,128.24 180.852,129.073 182.5,130.5 Z"/></g>
<g><path style="opacity:1" fill="#d2b572" d="M 177.5,107.5 C 181.57,107.432 185.237,108.432 188.5,110.5C 188.265,111.097 187.765,111.43 187,111.5C 179.008,109.178 170.841,108.012 162.5,108C 167.489,107.501 172.489,107.334 177.5,107.5 Z"/></g>
<g><path style="opacity:0.008" fill="#dbc287" d="M 635.5,109.5 C 636.167,109.5 636.833,109.5 637.5,109.5C 636.833,110.833 636.167,110.833 635.5,109.5 Z"/></g>
<g><path style="opacity:0.995" fill="#d0b87c" d="M 312.5,110.5 C 312.5,110.167 312.5,109.833 312.5,109.5C 319.09,109.189 325.59,109.522 332,110.5C 332.5,139.498 332.667,168.498 332.5,197.5C 326.167,197.5 319.833,197.5 313.5,197.5C 313.831,168.329 313.498,139.329 312.5,110.5 Z"/></g>
<g><path style="opacity:0.004" fill="#dbc48a" d="M 484.5,111.5 C 484.897,110.475 485.563,110.308 486.5,111C 485.906,111.464 485.239,111.631 484.5,111.5 Z"/></g>
<g><path style="opacity:0.996" fill="#d1b97d" d="M 691.5,108.5 C 691.333,125.17 691.5,141.837 692,158.5C 692.333,142.5 692.667,126.5 693,110.5C 699.076,109.524 705.242,109.19 711.5,109.5C 711.17,128.008 711.503,146.341 712.5,164.5C 713.167,165.5 713.833,166.5 714.5,167.5C 720.249,178.593 729.249,182.426 741.5,179C 752.439,174.949 757.772,167.116 757.5,155.5C 758.352,145.814 759.019,130.147 759.5,108.5C 759.833,108.5 760.167,108.5 760.5,108.5C 765.9,109.187 771.4,109.854 777,110.5C 777.5,139.498 777.667,168.498 777.5,197.5C 771.824,197.334 766.157,197.501 760.5,198C 766.491,198.499 772.491,198.666 778.5,198.5C 778.5,198.833 778.5,199.167 778.5,199.5C 777.209,199.263 776.209,199.596 775.5,200.5C 774.833,200.5 774.167,200.5 773.5,200.5C 772.5,199.167 771.5,199.167 770.5,200.5C 769.833,200.5 769.167,200.5 768.5,200.5C 768.167,199.167 767.833,199.167 767.5,200.5C 766.5,200.5 765.5,200.5 764.5,200.5C 764.167,199.167 763.833,199.167 763.5,200.5C 763.167,200.5 762.833,200.5 762.5,200.5C 762.167,199.167 761.833,199.167 761.5,200.5C 761.167,200.5 760.833,200.5 760.5,200.5C 760.167,199.167 759.833,199.167 759.5,200.5C 758.833,200.5 758.167,200.5 757.5,200.5C 756.74,196.919 756.24,193.252 756,189.5C 754.442,192.021 752.275,193.688 749.5,194.5C 749.44,193.957 749.107,193.624 748.5,193.5C 745.495,195.671 742.161,197.171 738.5,198C 730.447,198.566 722.447,198.566 714.5,198C 715.056,198.383 715.389,198.883 715.5,199.5C 703.72,195.552 696.22,187.552 693,175.5C 692.042,170.877 691.375,166.21 691,161.5C 690.171,143.662 690.338,125.995 691.5,108.5 Z"/></g>
<g><path style="opacity:0.995" fill="#d2ba7f" d="M 439.5,137.5 C 439.5,157.5 439.5,177.5 439.5,197.5C 433.167,197.5 426.833,197.5 420.5,197.5C 420.667,178.497 420.5,159.497 420,140.5C 419.5,159.83 419.333,179.164 419.5,198.5C 419.5,198.833 419.5,199.167 419.5,199.5C 418.8,178.974 418.133,158.307 417.5,137.5C 418.222,137.918 418.722,138.584 419,139.5C 419.312,135.938 418.145,132.938 415.5,130.5C 415.937,128.926 416.937,127.759 418.5,127C 417.107,125.829 416.273,124.329 416,122.5C 415.346,123.696 414.846,123.696 414.5,122.5C 416.542,121.497 416.875,120.163 415.5,118.5C 416.912,117.194 418.579,116.36 420.5,116C 419.833,115.333 419.167,114.667 418.5,114C 419.833,113.333 419.833,112.667 418.5,112C 423.476,112.406 427.643,114.573 431,118.5C 435.686,124.078 438.519,130.411 439.5,137.5 Z"/></g>
<g><path style="opacity:0.988" fill="#d4b977" d="M 655.5,120.5 C 651.64,117.07 647.307,114.403 642.5,112.5C 641.341,110.75 639.674,109.75 637.5,109.5C 636.833,108.167 636.167,108.167 635.5,109.5C 634.441,106.721 632.607,106.054 630,107.5C 628.238,107.056 628.405,106.556 630.5,106C 628.655,104.872 626.655,104.372 624.5,104.5C 620.774,102.87 616.774,101.87 612.5,101.5C 611.737,100.732 610.737,100.232 609.5,100C 628.01,100.587 644.01,107.254 657.5,120C 656.906,120.464 656.239,120.631 655.5,120.5 Z"/></g>
<g><path style="opacity:0.004" fill="#dcc588" d="M 642.5,112.5 C 642.631,113.239 642.464,113.906 642,114.5C 641.308,113.563 641.475,112.897 642.5,112.5 Z"/></g>
<g><path style="opacity:0.973" fill="#cfb26c" d="M 589.5,110.5 C 591.379,110.393 591.712,110.893 590.5,112C 585.956,113.882 581.956,116.549 578.5,120C 577.833,120.667 577.167,120.667 576.5,120C 577.71,118.961 578.71,117.794 579.5,116.5C 582.161,113.498 585.495,111.498 589.5,110.5 Z"/></g>
<g><path style="opacity:0.008" fill="#ddc689" d="M 639.5,115.5 C 640.833,116.167 640.833,116.167 639.5,115.5 Z"/></g>
<g><path style="opacity:0.004" fill="#dbc687" d="M 458.5,116.5 C 459.833,117.167 459.833,117.167 458.5,116.5 Z"/></g>
<g><path style="opacity:0.994" fill="#d1b97a" d="M 438.5,127.5 C 438.7,130.63 439.366,133.63 440.5,136.5C 439.833,136.5 439.5,136.833 439.5,137.5C 438.519,130.411 435.686,124.078 431,118.5C 427.643,114.573 423.476,112.406 418.5,112C 419.833,112.667 419.833,113.333 418.5,114C 419.167,114.667 419.833,115.333 420.5,116C 418.579,116.36 416.912,117.194 415.5,118.5C 416.875,120.163 416.542,121.497 414.5,122.5C 414.846,123.696 415.346,123.696 416,122.5C 416.273,124.329 417.107,125.829 418.5,127C 416.937,127.759 415.937,128.926 415.5,130.5C 413.535,128.512 411.202,127.012 408.5,126C 402.167,125.333 395.833,125.333 389.5,126C 389.167,126.333 388.833,126.667 388.5,127C 389.448,127.483 390.448,127.649 391.5,127.5C 383.279,130.384 378.279,136.051 376.5,144.5C 376.167,144.5 375.833,144.5 375.5,144.5C 375.167,144.5 374.833,144.5 374.5,144.5C 374.895,141.314 375.895,138.314 377.5,135.5C 376.975,134.808 376.308,134.308 375.5,134C 375.937,131.551 375.937,129.217 375.5,127C 374.551,126.383 373.718,126.549 373,127.5C 371.115,126.687 370.449,125.353 371,123.5C 371.333,124.167 371.667,124.833 372,125.5C 374.203,122.447 373.703,119.947 370.5,118C 372.797,116.84 372.464,115.84 369.5,115C 370.784,114.316 371.951,114.483 373,115.5C 373.49,114.207 373.657,112.873 373.5,111.5C 369.19,110.92 364.857,110.586 360.5,110.5C 360.67,111.822 360.337,112.989 359.5,114C 362.792,116.412 363.959,119.579 363,123.5C 362.28,121.745 361.113,120.911 359.5,121C 360.305,122.972 361.639,124.472 363.5,125.5C 362.285,127.215 361.285,129.049 360.5,131C 360.83,134.678 360.83,138.512 360.5,142.5C 359.167,142.5 357.833,142.5 356.5,142.5C 356.334,150.84 356.5,159.173 357,167.5C 357.914,166.346 358.747,166.513 359.5,168C 358.552,168.483 357.552,168.649 356.5,168.5C 356.5,178.167 356.5,187.833 356.5,197.5C 355.336,168.67 355.17,139.67 356,110.5C 362.076,109.524 368.242,109.19 374.5,109.5C 374.16,112.972 374.493,115.639 375.5,117.5C 375.833,117.5 376.167,117.5 376.5,117.5C 382.073,112.047 388.74,108.713 396.5,107.5C 410.935,104.237 423.435,107.904 434,118.5C 436.038,121.243 437.538,124.243 438.5,127.5 Z"/></g>
<g><path style="opacity:0.995" fill="#cdad60" d="M 396.5,107.5 C 401.511,107.334 406.511,107.501 411.5,108C 405.498,108.759 399.498,109.092 393.5,109C 394.737,108.768 395.737,108.268 396.5,107.5 Z"/></g>
<g><path style="opacity:0.443" fill="#e5d4a3" d="M 484.5,115.5 C 484.217,116.289 483.717,116.956 483,117.5C 483.155,101.468 482.321,85.8013 480.5,70.5C 474.167,70.5 467.833,70.5 461.5,70.5C 461.5,112.833 461.5,155.167 461.5,197.5C 461.5,198.167 461.5,198.833 461.5,199.5C 460.83,166.764 460.163,133.931 459.5,101C 460.378,90.772 460.711,80.272 460.5,69.5C 468.167,69.5 475.833,69.5 483.5,69.5C 483.17,85.0091 483.504,100.342 484.5,115.5 Z"/></g>
<g><path style="opacity:0.995" fill="#d1b97d" d="M 374.5,144.5 C 374.5,162.167 374.5,179.833 374.5,197.5C 368.5,197.5 362.5,197.5 356.5,197.5C 356.5,187.833 356.5,178.167 356.5,168.5C 357.552,168.649 358.552,168.483 359.5,168C 358.747,166.513 357.914,166.346 357,167.5C 356.5,159.173 356.334,150.84 356.5,142.5C 357.833,142.5 359.167,142.5 360.5,142.5C 360.83,138.512 360.83,134.678 360.5,131C 361.285,129.049 362.285,127.215 363.5,125.5C 361.639,124.472 360.305,122.972 359.5,121C 361.113,120.911 362.28,121.745 363,123.5C 363.959,119.579 362.792,116.412 359.5,114C 360.337,112.989 360.67,111.822 360.5,110.5C 364.857,110.586 369.19,110.92 373.5,111.5C 373.657,112.873 373.49,114.207 373,115.5C 371.951,114.483 370.784,114.316 369.5,115C 372.464,115.84 372.797,116.84 370.5,118C 373.703,119.947 374.203,122.447 372,125.5C 371.667,124.833 371.333,124.167 371,123.5C 370.449,125.353 371.115,126.687 373,127.5C 373.718,126.549 374.551,126.383 375.5,127C 375.937,129.217 375.937,131.551 375.5,134C 376.308,134.308 376.975,134.808 377.5,135.5C 375.895,138.314 374.895,141.314 374.5,144.5 Z"/></g>
<g><path style="opacity:0.994" fill="#d0b46d" d="M 125.5,134.5 C 130.991,122.341 139.991,114.007 152.5,109.5C 155.176,108.992 157.843,108.825 160.5,109C 149.568,111.55 140.402,117.05 133,125.5C 131.305,129.346 128.805,132.346 125.5,134.5 Z"/></g>
<g><path style="opacity:0.973" fill="#d4b876" d="M 621.5,108.5 C 628.022,110.096 634.022,112.763 639.5,116.5C 653.671,128.816 659.337,144.149 656.5,162.5C 655.732,163.263 655.232,164.263 655,165.5C 658.196,135.721 645.363,116.888 616.5,109C 618.134,108.506 619.801,108.34 621.5,108.5 Z"/></g>
<g><path style="opacity:0.992" fill="#cdad63" d="M 712.5,108.5 C 712.5,127.167 712.5,145.833 712.5,164.5C 711.503,146.341 711.17,128.008 711.5,109.5C 705.242,109.19 699.076,109.524 693,110.5C 692.667,126.5 692.333,142.5 692,158.5C 691.5,141.837 691.333,125.17 691.5,108.5C 698.5,107.167 705.5,107.167 712.5,108.5 Z"/></g>
<g><path style="opacity:0.996" fill="#cba95d" d="M 168.5,124.5 C 171.216,124.678 173.883,125.178 176.5,126C 171.833,126.667 167.167,126.667 162.5,126C 164.708,125.809 166.708,125.309 168.5,124.5 Z"/></g>
<g><path style="opacity:0.993" fill="#cbad66" d="M 227.5,125.5 C 240.544,124.853 253.211,125.52 265.5,127.5C 256.167,127.5 246.833,127.5 237.5,127.5C 233.316,128.031 229.649,128.031 226.5,127.5C 226.5,127.167 226.5,126.833 226.5,126.5C 227.167,126.5 227.5,126.167 227.5,125.5 Z"/></g>
<g><path style="opacity:0.995" fill="#d1b97c" d="M 621.5,108.5 C 619.801,108.34 618.134,108.506 616.5,109C 645.363,116.888 658.196,135.721 655,165.5C 655.232,164.263 655.732,163.263 656.5,162.5C 653.081,180.015 643.081,192.015 626.5,198.5C 627.463,197.637 627.463,196.97 626.5,196.5C 616.646,199.281 606.646,200.114 596.5,199C 598.708,199.191 600.708,199.691 602.5,200.5C 600.167,200.5 597.833,200.5 595.5,200.5C 575.103,193.77 563.437,179.77 560.5,158.5C 561.29,159.609 561.79,160.942 562,162.5C 561.024,154.841 561.858,147.341 564.5,140C 564.317,138.316 563.65,138.15 562.5,139.5C 565.563,129.789 571.23,122.123 579.5,116.5C 578.71,117.794 577.71,118.961 576.5,120C 577.167,120.667 577.833,120.667 578.5,120C 581.956,116.549 585.956,113.882 590.5,112C 591.712,110.893 591.379,110.393 589.5,110.5C 592.763,108.432 596.43,107.432 600.5,107.5C 602.978,106.836 605.645,106.503 608.5,106.5C 613.093,106.379 617.426,107.046 621.5,108.5 Z M 619.5,129.5 C 620.167,129.5 620.833,129.5 621.5,129.5C 621.973,130.906 622.973,131.573 624.5,131.5C 629.91,136.546 633.577,142.546 635.5,149.5C 635.5,153.167 635.5,156.833 635.5,160.5C 632.936,168.96 627.603,174.96 619.5,178.5C 605.877,183.91 594.711,180.577 586,168.5C 581.333,158.833 581.333,149.167 586,139.5C 587.331,137.004 589.164,135.004 591.5,133.5C 596.233,129.528 601.733,127.195 608,126.5C 612.039,127.056 615.872,128.056 619.5,129.5 Z"/></g>
<g><path style="opacity:0.996" fill="#ccac5f" d="M 600.5,107.5 C 605.179,107.334 609.845,107.501 614.5,108C 608.066,108.148 601.733,108.982 595.5,110.5C 594.833,110.333 594.167,110.167 593.5,110C 596.004,109.302 598.337,108.469 600.5,107.5 Z"/></g>
<g><path style="opacity:0.016" fill="#ead8aa" d="M 237.5,127.5 C 246.833,127.5 256.167,127.5 265.5,127.5C 265.938,127.435 266.272,127.601 266.5,128C 265.934,128.995 265.267,129.828 264.5,130.5C 255.713,128.844 246.713,127.844 237.5,127.5 Z"/></g>
<g><path style="opacity:0.996" fill="#d3b673" d="M 415.5,130.5 C 418.145,132.938 419.312,135.938 419,139.5C 418.722,138.584 418.222,137.918 417.5,137.5C 415.715,133.88 413.048,131.047 409.5,129C 403.593,127.639 397.593,127.139 391.5,127.5C 390.448,127.649 389.448,127.483 388.5,127C 388.833,126.667 389.167,126.333 389.5,126C 395.833,125.333 402.167,125.333 408.5,126C 411.202,127.012 413.535,128.512 415.5,130.5 Z"/></g>
<g><path style="opacity:0.2" fill="#e4d4a8" d="M 1.5,122.5 C 0.660159,131.138 0.326826,139.805 0.5,148.5C 0.166667,148.5 -0.166667,148.5 -0.5,148.5C -0.5,141.167 -0.5,133.833 -0.5,126.5C 0.166667,125.167 0.833333,123.833 1.5,122.5 Z"/></g>
<g><path style="opacity:0.004" fill="#d9c486" d="M 263.5,130.5 C 262.833,129.167 262.833,129.167 263.5,130.5 Z"/></g>
<g><path style="opacity:0.008" fill="#dbc58a" d="M 391.5,129.5 C 392.833,130.167 392.833,130.167 391.5,129.5 Z"/></g>
<g><path style="opacity:0.004" fill="#ddc489" d="M 407.5,129.5 C 408.833,130.167 408.833,130.167 407.5,129.5 Z"/></g>
<g><path style="opacity:0.965" fill="#d3b773" d="M 510.5,127.5 C 503.969,126.988 497.636,127.822 491.5,130C 486.888,133.72 484.222,138.553 483.5,144.5C 483.167,144.5 482.833,144.5 482.5,144.5C 482.5,143.833 482.167,143.5 481.5,143.5C 482.298,137.073 485.298,131.906 490.5,128C 498.422,125.171 506.422,124.838 514.5,127C 513.207,127.49 511.873,127.657 510.5,127.5 Z"/></g>
<g><path style="opacity:0.004" fill="#dbc38a" d="M 409.5,130.5 C 410.833,131.167 410.833,131.167 409.5,130.5 Z"/></g>
<g><path style="opacity:0.443" fill="#dfcc9b" d="M 621.5,129.5 C 623.027,129.427 624.027,130.094 624.5,131.5C 622.973,131.573 621.973,130.906 621.5,129.5 Z"/></g>
<g><path style="opacity:0.004" fill="#ddc888" d="M 257.5,131.5 C 258.833,132.167 258.833,132.167 257.5,131.5 Z"/></g>
<g><path style="opacity:0.004" fill="#d9c186" d="M 215.5,133.5 C 216.833,134.167 216.833,134.167 215.5,133.5 Z"/></g>
<g><path style="opacity:0.004" fill="#dbc689" d="M 383.5,133.5 C 384.833,134.167 384.833,134.167 383.5,133.5 Z"/></g>
<g><path style="opacity:0.989" fill="#caaa5e" d="M 375.5,117.5 C 374.493,115.639 374.16,112.972 374.5,109.5C 368.242,109.19 362.076,109.524 356,110.5C 355.17,139.67 355.336,168.67 356.5,197.5C 362.5,197.5 368.5,197.5 374.5,197.5C 374.5,179.833 374.5,162.167 374.5,144.5C 374.833,144.5 375.167,144.5 375.5,144.5C 375.82,162.91 375.486,181.243 374.5,199.5C 369.702,198.256 365.035,198.256 360.5,199.5C 360.5,199.833 360.5,200.167 360.5,200.5C 358.5,200.5 356.5,200.5 354.5,200.5C 354.5,200.167 354.5,199.833 354.5,199.5C 354.5,169.167 354.5,138.833 354.5,108.5C 361.5,108.5 368.5,108.5 375.5,108.5C 375.5,111.5 375.5,114.5 375.5,117.5 Z"/></g>
<g><path style="opacity:0.988" fill="#ccae65" d="M 1.5,152.5 C 0.565525,151.432 0.232191,150.099 0.5,148.5C 0.326826,139.805 0.660159,131.138 1.5,122.5C 2.26791,121.737 2.76791,120.737 3,119.5C 3.16667,120.167 3.33333,120.833 3.5,121.5C 1.58119,131.941 0.914521,142.275 1.5,152.5 Z"/></g>
<g><path style="opacity:0.012" fill="#e1cf9f" d="M 189.5,134.5 C 190.906,134.973 191.573,135.973 191.5,137.5C 190.094,137.027 189.427,136.027 189.5,134.5 Z"/></g>
<g><path style="opacity:0.995" fill="#d1b97b" d="M 297.5,109.5 C 297.691,112.56 298.025,115.727 298.5,119C 288.891,131.436 279.891,144.27 271.5,157.5C 266.512,164.128 261.512,170.795 256.5,177.5C 255.522,177.811 254.855,178.478 254.5,179.5C 268.661,180.167 282.661,180.833 296.5,181.5C 295.167,187.5 295.167,193.5 296.5,199.5C 295.833,199.5 295.5,199.833 295.5,200.5C 293.5,200.5 291.5,200.5 289.5,200.5C 289.5,199.833 289.167,199.5 288.5,199.5C 290.292,198.691 292.292,198.191 294.5,198C 272.169,197.5 249.836,197.333 227.5,197.5C 227.819,192.637 227.486,187.97 226.5,183.5C 226.5,183.167 226.5,182.833 226.5,182.5C 238.858,165.149 251.192,147.815 263.5,130.5C 263.833,130.5 264.167,130.5 264.5,130.5C 265.267,129.828 265.934,128.995 266.5,128C 266.272,127.601 265.938,127.435 265.5,127.5C 253.211,125.52 240.544,124.853 227.5,125.5C 227.195,120.238 227.529,115.072 228.5,110C 250.5,109.333 272.5,109.333 294.5,110C 295.553,113.821 295.72,117.654 295,121.5C 296.16,117.604 296.993,113.604 297.5,109.5 Z"/></g>
<g><path style="opacity:0.816" fill="#dbc68e" d="M 23.5,126.5 C 23.2491,131.507 22.9157,136.507 22.5,141.5C 21.4207,136.448 21.7541,131.448 23.5,126.5 Z"/></g>
<g><path style="opacity:0.004" fill="#d7c387" d="M 23.5,136.5 C 24.8333,137.167 24.8333,137.167 23.5,136.5 Z"/></g>
<g><path style="opacity:0.004" fill="#dac588" d="M 655.5,136.5 C 656.833,137.167 656.833,137.167 655.5,136.5 Z"/></g>
<g><path style="opacity:1" fill="#d4b670" d="M 560.5,158.5 C 560.334,153.489 560.501,148.489 561,143.5C 561.21,141.942 561.71,140.609 562.5,139.5C 563.65,138.15 564.317,138.316 564.5,140C 561.858,147.341 561.024,154.841 562,162.5C 561.79,160.942 561.29,159.609 560.5,158.5 Z"/></g>
<g><path style="opacity:0.004" fill="#d6c284" d="M 121.5,142.5 C 120.833,141.167 120.833,141.167 121.5,142.5 Z"/></g>
<g><path style="opacity:0.292" fill="#e4d29d" d="M 333.5,108.5 C 326.313,108.175 319.313,108.509 312.5,109.5C 312.5,109.833 312.5,110.167 312.5,110.5C 312.5,139.833 312.5,169.167 312.5,198.5C 312.5,198.833 312.5,199.167 312.5,199.5C 311.502,169.005 311.169,138.338 311.5,107.5C 319.019,107.175 326.352,107.508 333.5,108.5 Z"/></g>
<g><path style="opacity:0.973" fill="#c3a454" d="M 760.5,108.5 C 766.591,108.211 772.591,108.545 778.5,109.5C 778.5,139.167 778.5,168.833 778.5,198.5C 772.491,198.666 766.491,198.499 760.5,198C 766.157,197.501 771.824,197.334 777.5,197.5C 777.667,168.498 777.5,139.498 777,110.5C 771.4,109.854 765.9,109.187 760.5,108.5 Z"/></g>
<g><path style="opacity:0.004" fill="#dcc689" d="M 416.5,145.5 C 417.833,146.167 417.833,146.167 416.5,145.5 Z"/></g>
<g><path style="opacity:0.006" fill="#dbc487" d="M 522.5,145.5 C 523.525,145.897 523.692,146.563 523,147.5C 522.536,146.906 522.369,146.239 522.5,145.5 Z"/></g>
<g><path style="opacity:0.004" fill="#dbc587" d="M 688.5,145.5 C 689.833,146.167 689.833,146.167 688.5,145.5 Z"/></g>
<g><path style="opacity:0.976" fill="#cfb26c" d="M 23.5,126.5 C 21.7541,131.448 21.4207,136.448 22.5,141.5C 23.4614,143.265 23.7947,145.265 23.5,147.5C 23.6567,148.873 23.49,150.207 23,151.5C 19.7066,141.819 19.7066,132.153 23,122.5C 23.49,123.793 23.6567,125.127 23.5,126.5 Z"/></g>
<g><path style="opacity:0.986" fill="#d5b976" d="M 757.5,108.5 C 758.167,108.5 758.833,108.5 759.5,108.5C 759.019,130.147 758.352,145.814 757.5,155.5C 756.704,139.52 756.704,123.853 757.5,108.5 Z"/></g>
<g><path style="opacity:0.992" fill="#cfb16d" d="M 312.5,109.5 C 319.313,108.509 326.313,108.175 333.5,108.5C 334.51,138.703 334.51,168.703 333.5,198.5C 326.5,198.5 319.5,198.5 312.5,198.5C 312.5,169.167 312.5,139.833 312.5,110.5C 313.498,139.329 313.831,168.329 313.5,197.5C 319.833,197.5 326.167,197.5 332.5,197.5C 332.667,168.498 332.5,139.498 332,110.5C 325.59,109.522 319.09,109.189 312.5,109.5 Z"/></g>
<g><path style="opacity:0.004" fill="#dac585" d="M 458.5,150.5 C 459.833,151.167 459.833,151.167 458.5,150.5 Z"/></g>
<g><path style="opacity:0.995" fill="#cdad61" d="M 480.5,70.5 C 474.766,71.1858 468.933,71.8524 463,72.5C 462.833,114.335 462.333,156.002 461.5,197.5C 461.5,155.167 461.5,112.833 461.5,70.5C 467.833,70.5 474.167,70.5 480.5,70.5 Z"/></g>
<g><path style="opacity:0.988" fill="#d3b776" d="M 121.5,160.5 C 120.227,156.135 120.227,151.801 121.5,147.5C 122.268,146.737 122.768,145.737 123,144.5C 123.667,150.833 123.667,157.167 123,163.5C 122.768,162.263 122.268,161.263 121.5,160.5 Z"/></g>
<g><path style="opacity:0.922" fill="#e1ce9b" d="M 217.5,144.5 C 219.451,150.744 219.451,157.078 217.5,163.5C 217.5,157.167 217.5,150.833 217.5,144.5 Z"/></g>
<g><path style="opacity:0.996" fill="#d2b671" d="M 143.5,147.5 C 143.5,151.833 143.5,156.167 143.5,160.5C 143.657,161.873 143.49,163.207 143,164.5C 141.084,157.46 141.084,150.46 143,143.5C 143.49,144.793 143.657,146.127 143.5,147.5 Z"/></g>
<g><path style="opacity:0.306" fill="#f1e3b2" d="M 375.5,144.5 C 375.833,144.5 376.167,144.5 376.5,144.5C 377.154,163.197 376.487,181.53 374.5,199.5C 375.486,181.243 375.82,162.91 375.5,144.5 Z"/></g>
<g><path style="opacity:0.004" fill="#ddc689" d="M 416.5,152.5 C 417.833,153.167 417.833,153.167 416.5,152.5 Z"/></g>
<g><path style="opacity:0.329" fill="#e6d5a6" d="M 712.5,108.5 C 713.215,128.019 713.881,147.686 714.5,167.5C 713.833,166.5 713.167,165.5 712.5,164.5C 712.5,145.833 712.5,127.167 712.5,108.5 Z"/></g>
<g><path style="opacity:0.004" fill="#ddc68a" d="M 416.5,156.5 C 417.833,157.167 417.833,157.167 416.5,156.5 Z"/></g>
<g><path style="opacity:0.448" fill="#e6d5a4" d="M 438.5,127.5 C 439.776,129.562 440.61,131.896 441,134.5C 441.829,156.337 441.663,178.004 440.5,199.5C 440.5,199.167 440.5,198.833 440.5,198.5C 440.5,177.833 440.5,157.167 440.5,136.5C 439.366,133.63 438.7,130.63 438.5,127.5 Z"/></g>
<g><path style="opacity:0.004" fill="#d8c089" d="M 271.5,157.5 C 272.833,158.167 272.833,158.167 271.5,157.5 Z"/></g>
<g><path style="opacity:1" fill="#d1b46d" d="M 635.5,160.5 C 635.5,156.833 635.5,153.167 635.5,149.5C 635.343,148.127 635.51,146.793 636,145.5C 636.333,145.833 636.667,146.167 637,146.5C 637.903,152.281 637.57,157.947 636,163.5C 635.517,162.552 635.351,161.552 635.5,160.5 Z"/></g>
<g><path style="opacity:0.004" fill="#dac688" d="M 416.5,159.5 C 417.833,160.167 417.833,160.167 416.5,159.5 Z"/></g>
<g><path style="opacity:0.41" fill="#e7d5a3" d="M 376.5,117.5 C 376.167,117.5 375.833,117.5 375.5,117.5C 375.5,114.5 375.5,111.5 375.5,108.5C 368.5,108.5 361.5,108.5 354.5,108.5C 354.5,138.833 354.5,169.167 354.5,199.5C 353.502,169.005 353.169,138.338 353.5,107.5C 361.167,107.5 368.833,107.5 376.5,107.5C 376.5,110.833 376.5,114.167 376.5,117.5 Z"/></g>
<g><path style="opacity:0.004" fill="#dcc48a" d="M 416.5,161.5 C 417.833,162.167 417.833,162.167 416.5,161.5 Z"/></g>
<g><path style="opacity:0.004" fill="#dcc586" d="M 416.5,163.5 C 417.525,163.897 417.692,164.563 417,165.5C 416.536,164.906 416.369,164.239 416.5,163.5 Z"/></g>
<g><path style="opacity:0.004" fill="#dac485" d="M 458.5,163.5 C 459.833,164.167 459.833,164.167 458.5,163.5 Z"/></g>
<g><path style="opacity:0.982" fill="#c2a253" d="M 481.5,143.5 C 482.167,143.5 482.5,143.833 482.5,144.5C 482.5,162.5 482.5,180.5 482.5,198.5C 476.491,198.666 470.491,198.499 464.5,198C 470.083,197.809 475.583,197.309 481,196.5C 481.5,178.836 481.667,161.17 481.5,143.5 Z"/></g>
<g><path style="opacity:0.004" fill="#dbc386" d="M 522.5,166.5 C 523.525,166.897 523.692,167.563 523,168.5C 522.536,167.906 522.369,167.239 522.5,166.5 Z"/></g>
<g><path style="opacity:0.996" fill="#c7a657" d="M 440.5,136.5 C 440.5,157.167 440.5,177.833 440.5,198.5C 433.5,198.5 426.5,198.5 419.5,198.5C 419.333,179.164 419.5,159.83 420,140.5C 420.5,159.497 420.667,178.497 420.5,197.5C 426.833,197.5 433.167,197.5 439.5,197.5C 439.5,177.5 439.5,157.5 439.5,137.5C 439.5,136.833 439.833,136.5 440.5,136.5 Z"/></g>
<g><path style="opacity:0.004" fill="#dcc588" d="M 416.5,168.5 C 417.833,169.167 417.833,169.167 416.5,168.5 Z"/></g>
<g><path style="opacity:0.004" fill="#dbc487" d="M 416.5,170.5 C 417.525,170.897 417.692,171.563 417,172.5C 416.536,171.906 416.369,171.239 416.5,170.5 Z"/></g>
<g><path style="opacity:0.954" fill="#cfb370" d="M 546.5,142.5 C 546.82,161.576 546.487,180.576 545.5,199.5C 544.833,199.5 544.5,199.833 544.5,200.5C 542.833,200.5 541.167,200.5 539.5,200.5C 538.833,199.167 538.167,199.167 537.5,200.5C 537.167,200.5 536.833,200.5 536.5,200.5C 533.5,199.167 530.5,199.167 527.5,200.5C 527.167,200.5 526.833,200.5 526.5,200.5C 525.933,198.97 525.267,197.47 524.5,196C 525.536,177.048 525.203,157.882 523.5,138.5C 523.56,137.957 523.893,137.624 524.5,137.5C 526.062,140.963 526.895,144.63 527,148.5C 526.779,164.549 526.613,180.549 526.5,196.5C 532.463,197.496 538.463,197.829 544.5,197.5C 544.599,175.47 544.433,153.47 544,131.5C 544.795,135.312 545.629,138.979 546.5,142.5 Z"/></g>
<g><path style="opacity:0.004" fill="#d9c586" d="M 78.5,174.5 C 79.8333,175.167 79.8333,175.167 78.5,174.5 Z"/></g>
<g><path style="opacity:0.004" fill="#dbc286" d="M 229.5,174.5 C 230.833,175.167 230.833,175.167 229.5,174.5 Z"/></g>
<g><path style="opacity:0.004" fill="#d9c185" d="M 226.5,175.5 C 227.833,176.167 227.833,176.167 226.5,175.5 Z"/></g>
<g><path style="opacity:0.004" fill="#dbc587" d="M 416.5,175.5 C 417.833,176.167 417.833,176.167 416.5,175.5 Z"/></g>
<g><path style="opacity:0.008" fill="#dac486" d="M 66.5,177.5 C 67.8333,178.167 67.8333,178.167 66.5,177.5 Z"/></g>
<g><path style="opacity:0.008" fill="#dcc387" d="M 272.5,178.5 C 273.251,177.427 274.251,177.26 275.5,178C 274.552,178.483 273.552,178.649 272.5,178.5 Z"/></g>
<g><path style="opacity:0.004" fill="#dcc587" d="M 280.5,177.5 C 281.833,178.167 281.833,178.167 280.5,177.5 Z"/></g>
<g><path style="opacity:0.004" fill="#dac588" d="M 282.5,177.5 C 283.833,178.167 283.833,178.167 282.5,177.5 Z"/></g>
<g><path style="opacity:0.004" fill="#d9c487" d="M 416.5,177.5 C 417.833,178.167 417.833,178.167 416.5,177.5 Z"/></g>
<g><path style="opacity:0.004" fill="#d8c184" d="M 732.5,178.5 C 733.833,179.167 733.833,179.167 732.5,178.5 Z"/></g>
<g><path style="opacity:0.522" fill="#e3ce98" d="M 256.5,177.5 C 269.797,179.319 283.463,180.152 297.5,180C 298.476,186.076 298.81,192.242 298.5,198.5C 297.833,192.833 297.167,187.167 296.5,181.5C 282.661,180.833 268.661,180.167 254.5,179.5C 254.855,178.478 255.522,177.811 256.5,177.5 Z"/></g>
<g><path style="opacity:0.045" fill="#e1cc95" d="M 546.5,142.5 C 547.166,151.827 547.5,161.327 547.5,171C 547.498,180.858 546.832,190.358 545.5,199.5C 546.487,180.576 546.82,161.576 546.5,142.5 Z"/></g>
<g><path style="opacity:0.192" fill="#e5d3a2" d="M 159.5,179.5 C 165.13,180.292 170.797,180.625 176.5,180.5C 174.359,181.163 172.025,181.497 169.5,181.5C 165.859,181.685 162.526,181.019 159.5,179.5 Z"/></g>
<g><path style="opacity:0.988" fill="#c8ab61" d="M 726.5,181.5 C 731.618,181.486 736.952,181.319 742.5,181C 737.157,182.656 731.824,182.822 726.5,181.5 Z"/></g>
<g><path style="opacity:0.008" fill="#dac485" d="M 458.5,183.5 C 459.833,184.167 459.833,184.167 458.5,183.5 Z"/></g>
<g><path style="opacity:0.004" fill="#dbc386" d="M 416.5,185.5 C 417.833,186.167 417.833,186.167 416.5,185.5 Z"/></g>
<g><path style="opacity:0.016" fill="#dac285" d="M 458.5,186.5 C 459.525,186.897 459.692,187.563 459,188.5C 458.536,187.906 458.369,187.239 458.5,186.5 Z"/></g>
<g><path style="opacity:0.899" fill="#ccb06b" d="M 296.5,181.5 C 297.167,187.167 297.833,192.833 298.5,198.5C 298.158,199.338 297.492,199.672 296.5,199.5C 295.167,193.5 295.167,187.5 296.5,181.5 Z"/></g>
<g><path style="opacity:0.004" fill="#d5bf84" d="M 96.5,193.5 C 97.8333,194.167 97.8333,194.167 96.5,193.5 Z"/></g>
<g><path style="opacity:0.969" fill="#d0b46f" d="M 71.5,200.5 C 63.8333,200.5 56.1667,200.5 48.5,200.5C 29.4074,195.403 15.4074,184.069 6.5,166.5C 6.36899,165.761 6.53566,165.094 7,164.5C 21.2897,189.395 42.7897,201.395 71.5,200.5 Z"/></g>
<g><path style="opacity:0.008" fill="#d5bf83" d="M 754.5,193.5 C 755.573,194.251 755.74,195.251 755,196.5C 754.517,195.552 754.351,194.552 754.5,193.5 Z"/></g>
<g><path style="opacity:0.545" fill="#e0ce9a" d="M 226.5,182.5 C 226.5,182.833 226.5,183.167 226.5,183.5C 226.5,188.833 226.5,194.167 226.5,199.5C 225.79,197.107 225.123,194.607 224.5,192C 224.92,188.98 225.587,185.813 226.5,182.5 Z"/></g>
<g><path style="opacity:0.016" fill="#d6be80" d="M 191.5,197.5 C 192.833,198.167 192.833,198.167 191.5,197.5 Z"/></g>
<g><path style="opacity:0.988" fill="#d1b46f" d="M 226.5,183.5 C 227.486,187.97 227.819,192.637 227.5,197.5C 249.836,197.333 272.169,197.5 294.5,198C 292.292,198.191 290.292,198.691 288.5,199.5C 288.5,199.833 288.5,200.167 288.5,200.5C 279.5,200.5 270.5,200.5 261.5,200.5C 261.167,199.167 260.833,199.167 260.5,200.5C 250.833,200.5 241.167,200.5 231.5,200.5C 231.167,199.167 230.833,199.167 230.5,200.5C 229.167,200.5 227.833,200.5 226.5,200.5C 226.5,200.167 226.5,199.833 226.5,199.5C 226.5,194.167 226.5,188.833 226.5,183.5 Z"/></g>
<g><path style="opacity:0.008" fill="#d8c385" d="M 416.5,197.5 C 417.833,198.167 417.833,198.167 416.5,197.5 Z"/></g>
<g><path style="opacity:0.949" fill="#d3ba79" d="M 312.5,199.5 C 312.5,199.167 312.5,198.833 312.5,198.5C 319.5,198.5 326.5,198.5 333.5,198.5C 331.833,199.167 330.167,199.833 328.5,200.5C 327.5,200.5 326.5,200.5 325.5,200.5C 324.833,199.167 324.167,199.167 323.5,200.5C 322.5,200.5 321.5,200.5 320.5,200.5C 319.833,199.167 319.167,199.167 318.5,200.5C 318.167,200.5 317.833,200.5 317.5,200.5C 317.167,199.167 316.833,199.167 316.5,200.5C 315.833,200.5 315.167,200.5 314.5,200.5C 314.158,199.662 313.492,199.328 312.5,199.5 Z"/></g>
<g><path style="opacity:0.934" fill="#d4bc7b" d="M 360.5,199.5 C 365.035,198.256 369.702,198.256 374.5,199.5C 374.5,199.833 374.5,200.167 374.5,200.5C 373.5,200.5 372.5,200.5 371.5,200.5C 370.5,199.167 369.5,199.167 368.5,200.5C 367.5,200.5 366.5,200.5 365.5,200.5C 364.833,199.167 364.167,199.167 363.5,200.5C 363.167,200.5 362.833,200.5 362.5,200.5C 362.158,199.662 361.492,199.328 360.5,199.5 Z"/></g>
<g><path style="opacity:0.934" fill="#d4bc7c" d="M 419.5,199.5 C 419.5,199.167 419.5,198.833 419.5,198.5C 426.5,198.5 433.5,198.5 440.5,198.5C 440.5,198.833 440.5,199.167 440.5,199.5C 439.833,199.5 439.5,199.833 439.5,200.5C 437.167,200.5 434.833,200.5 432.5,200.5C 430.833,199.167 429.167,199.167 427.5,200.5C 426.833,200.5 426.167,200.5 425.5,200.5C 425.167,199.167 424.833,199.167 424.5,200.5C 423.167,200.5 421.833,200.5 420.5,200.5C 420.5,199.833 420.167,199.5 419.5,199.5 Z"/></g>
<g><path style="opacity:0.976" fill="#cfb36f" d="M 749.5,194.5 C 746.672,196.748 743.672,198.748 740.5,200.5C 732.5,200.5 724.5,200.5 716.5,200.5C 716.5,199.833 716.167,199.5 715.5,199.5C 715.389,198.883 715.056,198.383 714.5,198C 722.447,198.566 730.447,198.566 738.5,198C 742.161,197.171 745.495,195.671 748.5,193.5C 749.107,193.624 749.44,193.957 749.5,194.5 Z"/></g>
<g><path style="opacity:0.996" fill="#cfb26b" d="M 186.5,198.5 C 185.005,198.989 183.671,199.655 182.5,200.5C 173.833,200.5 165.167,200.5 156.5,200.5C 150.901,198.966 145.901,196.3 141.5,192.5C 140.537,191.637 140.537,190.97 141.5,190.5C 155.277,199.883 170.11,201.883 186,196.5C 187.684,196.683 187.85,197.35 186.5,198.5 Z"/></g>
<g><path style="opacity:0.986" fill="#cfb168" d="M 626.5,198.5 C 625.005,198.989 623.671,199.655 622.5,200.5C 615.833,200.5 609.167,200.5 602.5,200.5C 600.708,199.691 598.708,199.191 596.5,199C 606.646,200.114 616.646,199.281 626.5,196.5C 627.463,196.97 627.463,197.637 626.5,198.5 Z"/></g>
</svg>
