<svg width="650" height="900" xmlns="http://www.w3.org/2000/svg">
  <defs>
	<g id="hat">
		<svg width="154" height="119" viewBox="0 0 154 119" fill="none" xmlns="http://www.w3.org/2000/svg">
			<path d="M144.13 38.6781C144.13 38.6781 148.433 44.5467 149.334 45.8948C150.835 47.7981 151.135 50.2566 151.135 58.98C151.135 69.686 151.135 69.686 147.733 74.4442C144.43 79.2025 133.421 88.3229 131.019 88.3229C130.719 88.3229 129.017 88.7988 127.317 89.4328C125.515 90.0674 122.312 91.0191 120.01 91.4158C115.909 92.2878 115.807 92.4466 108.31 104.17L108.301 104.183L100.795 116L85.8764 108.027L78.3705 104.183L67.4871 99.4252L61.1071 96.4911L53.358 93.4773C51.5566 93.2394 49.1547 92.6845 48.0539 92.2878C44.451 91.0982 35.1437 88.957 30.0397 88.1641C24.8355 87.3713 5.92065 85.2301 3.819 85.1504C1.4171 85.1504 2.51797 82.3751 8.5227 73.0168C11.8253 67.8624 14.5274 63.1041 14.5274 62.3904C14.5274 61.6764 13.2264 59.3766 11.5251 57.3146C9.92381 55.1734 8.5 52 7.92223 50.2566C7 48.5 6.5 47 6.42105 46.6085C6.09423 44.9881 5.42026 33.444 7.02152 29.6374C9.82373 23.2137 14.6275 16.8694 19.6315 12.9834C22.3336 10.9216 30.2398 6.7977 32.6417 6.24257C33.9428 5.92535 35.544 5.37022 36.1445 4.9737C36.745 4.57717 39.9475 3.94275 43.15 3.54622C46.4526 3.14969 50.4558 2.83247 52.057 2.75317C56.3604 2.67387 68.2698 4.10135 70.3714 4.9737C71.2722 5.44953 74.1745 6.55978 76.7765 7.51144C82.0807 9.49403 90.3875 15.6798 93.0896 19.645L94.891 22.3414L106.5 22.6586C112.905 22.8172 119.01 23.3724 120.111 23.8482C121.211 24.4033 124.314 25.5929 127.016 26.6239C133.021 28.8444 141.528 34.8715 144.13 38.6781ZM144.13 38.6781C143.383 38.6781 146.102 41.2464 146.385 41.375C145.984 41.375 145.23 40.2642 144.13 38.6781Z" stroke="#fde3bc" stroke-width="5" stroke-linejoin="bevel"/>
		</svg>
    </g>
    <pattern id="hatPattern" width="600" height="900" patternUnits="userSpaceOnUse">
      <use href="#hat" x="-20" y="60" width="160" height="160"  transform="translate(560, 0) scale(-1, 1)" />
      <use href="#hat" x="100" y="120" width="160" height="160"     />
      <use href="#hat" x="300" y="400" width="160" height="160"   transform="translate(560, 0) scale(-1, 1)" />
      <use href="#hat" x="400" y="380" width="160" height="160"  />
	  <use href="#hat" x="-600" y="500" width="160" height="160"   transform="translate(0, 160) scale(-1, 1)" />
      <use href="#hat" x="200" y="700" width="160" height="160"  />
    </pattern>
  </defs>

  <rect width="100%" height="100%" fill="url(#hatPattern)" />
</svg>