<svg width="1200" height="328" viewBox="0 0 1200 328" fill="none" xmlns="http://www.w3.org/2000/svg">
<path d="M942.767 9.21935C938.501 9.88605 934.234 10.9527 933.434 11.6193C932.634 12.286 930.501 13.2193 928.767 13.7527C925.567 14.686 915.034 21.6193 911.434 25.086C904.767 31.6193 898.367 42.286 894.634 53.086C892.501 59.486 891.834 80.4193 893.834 81.6193C894.367 82.0193 895.301 84.8193 895.834 87.7527C896.234 90.686 898.501 96.0197 900.634 99.6197C902.901 103.086 904.634 106.953 904.634 108.153C904.634 109.353 901.034 117.353 896.634 126.02C888.634 141.753 887.167 146.42 890.367 146.42C893.167 146.553 918.367 150.153 925.301 151.486C932.101 152.82 944.501 156.42 949.301 158.42C950.767 159.086 953.967 160.02 956.367 160.42C969.5 166.5 961.034 164.153 953.834 165.486C935.434 168.82 929.834 170.553 919.567 176.286C911.834 180.686 895.301 199.486 895.301 204.153C895.301 205.086 894.634 206.553 893.834 207.353C892.367 208.82 891.701 211.086 888.367 227.353C886.901 234.153 887.834 244.02 891.034 257.753C893.834 269.486 902.901 282.686 913.834 290.82C923.434 298.02 925.567 299.22 935.167 302.42C941.967 304.82 945.567 305.22 960.901 304.82C978.101 304.286 981.301 303.753 992.634 298.553C1000.63 294.953 1010.4 284.986 1016.13 277.253C1019.2 273.253 1021.63 270.053 1021.63 269.253C1021.63 268.586 1021.56 265.386 1022.63 263.253C1025.6 244.853 1030.63 226.52 1020.63 206.253L1018.67 199.7L1029.56 178.42C1039.56 158.686 1039.7 158.42 1045.16 156.953C1048.23 156.286 1052.5 154.686 1054.9 153.62C1057.16 152.553 1059.43 151.753 1059.83 151.753C1063.03 151.753 1077.7 136.42 1082.1 128.42C1086.63 120.42 1086.63 120.42 1086.63 102.42C1086.63 87.7527 1086.23 83.6193 1084.23 80.4193C1083.03 78.1527 1081.96 75.6193 1081.96 74.686C1081.96 73.886 1081.56 73.086 1080.9 73.086C1080.36 73.086 1078.76 70.9527 1077.3 68.286C1073.83 61.886 1062.5 51.7527 1054.5 48.0193C1050.9 46.286 1046.76 44.286 1045.3 43.3527C1043.83 42.5527 1035.7 41.6193 1027.16 41.3527L1011.7 40.8193L1009.3 36.286C1005.7 29.6193 994.634 19.2193 987.567 15.886C984.101 14.286 980.234 12.4193 979.034 11.6193C976.234 10.1527 960.367 7.75275 954.634 7.88605C952.501 8.01935 947.167 8.55275 942.767 9.21935ZM969.701 27.086C977.434 29.886 984.367 34.4193 990.234 40.8193C995.301 46.286 1000.63 55.086 1000.63 58.0193C1000.63 58.8193 1001.57 60.4193 1002.63 61.6193C1004.37 63.3527 1005.17 63.3527 1008.9 61.3527C1015.7 58.0193 1036.76 58.4193 1044.76 62.1527C1051.43 65.2193 1064.63 77.486 1064.63 80.5527C1064.63 81.6193 1065.16 82.4193 1065.7 82.4193C1067.3 82.4193 1071.3 97.4857 1071.3 103.353C1071.3 110.553 1067.83 119.486 1062.23 126.686C1059.56 130.286 1057.03 133.086 1056.5 133.086C1056.1 133.086 1054.36 134.286 1052.63 135.753C1050.9 137.22 1048.63 138.42 1047.3 138.42C1046.1 138.42 1044.5 139.086 1043.56 140.02C1042.76 140.82 1039.03 141.62 1035.3 141.62C1027.96 141.753 1027.96 141.886 1022.9 152.42C1017.43 163.886 1013.7 170.42 1012.5 170.42C1011.7 170.42 1006.5 167.353 1000.9 163.753C995.167 160.02 984.901 154.286 977.967 150.953C971.034 147.62 964.367 144.42 963.301 143.753C962.101 143.22 959.167 142.286 956.634 141.753C954.101 141.22 951.167 140.286 949.967 139.62C947.834 138.42 932.901 136.02 920.634 134.82C916.634 134.553 912.901 133.753 912.367 133.22C911.834 132.686 914.634 125.886 918.634 118.02L925.834 103.62L919.967 96.2857C916.634 92.286 913.967 87.886 913.967 86.686C913.967 85.3527 913.301 83.6193 912.501 82.8193C911.567 81.886 910.634 76.8193 910.234 71.486C909.701 63.3527 910.101 60.5527 912.501 55.486C913.967 52.0193 915.301 48.686 915.301 48.1527C915.301 45.3527 928.634 33.2194 934.634 30.4194C938.367 28.8194 942.234 26.9527 943.301 26.286C946.634 24.5527 963.567 24.9527 969.701 27.086ZM976.134 198.286C983.334 201.486 989.367 208.82 993.634 216.42C996.301 221.486 995.967 224.82 995.967 237.086V251.086L993.134 259.253C985.001 271.52 972.701 282.753 959.634 282.753C945.767 282.753 928.067 270.086 921.134 256.753C917.134 248.886 919.001 224.02 923.134 216.42C927.801 207.886 929.767 202.553 937.634 198.286C943.901 194.686 949.834 193.753 958.634 193.753C965.967 193.753 971.867 196.42 976.134 198.286Z" fill="#B42C24"/>
<path d="M507.6 113.067C501.6 114.533 495.067 121.867 494.133 128.4C493.2 134.667 494.8 141.867 498.133 145.467C499.333 146.8 503.333 148.933 507.067 150.133C518.933 154.133 531.067 149.2 535.467 138.8C537.733 133.333 537.733 130.133 535.6 123.733C533.067 116.533 528.4 113.467 519.067 112.8C514.8 112.4 509.6 112.533 507.6 113.067Z" fill="#D2B97F"/>
<path d="M731.467 117.2C730.133 119.333 730.4 304.267 731.733 305.6C732.4 306.267 739.467 306.533 747.467 306.4L762 306L762.667 265.333C763.467 222.267 763.733 219.733 770.267 211.067C775.867 203.733 781.467 201.333 792.8 201.333C801.067 201.333 803.6 201.867 807.867 204.533C820.4 212.533 821.6 217.733 822.133 265.867C822.4 287.067 823.067 304.933 823.733 305.6C824.4 306.267 831.467 306.533 839.467 306.4L854 306L854.4 258.667C854.667 216.8 854.4 210.533 852.4 204.667C851.2 201.067 849.333 197.067 848.4 195.867C847.467 194.8 846.667 193.2 846.667 192.533C846.667 190.4 832.933 178.133 828 175.867C819.2 171.733 811.333 170 802.667 170.133C789.067 170.267 779.733 174.267 768.4 184.8C766.4 186.533 764.4 187.6 763.733 186.933C763.2 186.4 762.533 170.267 762.4 151.333L762 116.667L747.067 116.267C738.4 116.133 731.867 116.4 731.467 117.2Z" fill="#D2B97F"/>
<path d="M82.6666 127.333C80.8 128.4 78.1333 129.2 76.5333 129.333C72.5333 129.333 60.1333 136 50.9333 143.067C40 151.467 32.2666 160.8 26.8 171.6C24.2666 176.533 21.6 181.867 20.9333 183.333C19.3333 186.267 17.8666 193.067 15.7333 207.6C14.6666 214.667 14.6666 220 15.7333 226.933C18.2666 244.267 21.3333 255.467 24.6666 260.133C25.4666 261.2 27.2 264.4 28.6666 267.333C30.1333 270.267 36.4 277.867 42.6666 284.133C51.4666 293.067 56.2666 296.667 64.1333 300.533C69.6 303.2 75.0666 305.333 76.2666 305.333C77.3333 305.333 80.5333 306.267 83.0666 307.333C90.1333 310.267 123.6 310.133 132.667 307.2C146.667 302.667 156.4 296.8 167.6 286.267C173.6 280.4 178.667 274.667 178.667 273.467C178.667 272.133 174.933 268.4 170.267 265.067C165.733 261.733 160.8 257.733 159.467 256.133C158 254.533 156.4 253.333 155.867 253.333C155.333 253.333 152.267 256.133 149.067 259.467C142.933 266 136 271.067 127.333 275.067C119.867 278.533 95.4666 278.667 87.4666 275.2C69.6 267.467 57.3333 251.067 52.8 229.333C50.5333 218.667 50.5333 217.2 52.5333 206.667C56.6666 185.333 67.7333 169.733 84.5333 161.6C92.6666 157.6 94.2666 157.333 107.2 157.333C118.267 157.333 122.133 157.867 126.8 160C135.6 164.133 137.333 165.333 145.733 173.6C150 177.867 153.733 181.333 154.133 181.333C155.867 181.333 178.667 161.467 178.667 160.133C178.533 158.8 166.267 146.267 160.667 141.867C154.4 136.933 142.133 130.667 132.667 127.467C123.733 124.533 87.7333 124.4 82.6666 127.333Z" fill="#D2B97F"/>
<path d="M256.667 169.867C256 170.133 251.733 171.067 247.333 172.133C240.133 173.6 235.333 175.467 229.333 178.8C228.267 179.467 226.4 180.4 225.333 180.933C217.067 184.533 202 202.4 198 213.333C194.533 222.533 193.067 235.467 194 248.667C195.2 265.6 200 276.267 212.667 289.867C218.533 296.133 232.667 305.333 236.4 305.333C237.467 305.333 240.133 306.267 242.133 307.333C247.6 310.133 280.4 310.133 285.867 307.333C287.867 306.267 290.4 305.333 291.2 305.333C293.6 305.333 301.733 300.933 308.8 295.6C320.4 287.2 323.867 282.267 332.533 262.267C335.6 255.2 335.6 226.267 332.533 219.067C325.733 203.067 321.867 197.333 311.467 187.733C303.867 180.667 294 175.333 282.8 172.533C275.467 170.533 259.2 168.933 256.667 169.867ZM279.333 204C298.4 213.733 306.933 234 300.267 253.867C288.8 287.733 245.733 291.067 230.8 259.333C227.333 252 226.667 249.067 226.667 240.533C226.667 232.133 227.333 229.2 230.667 222.533C234.8 214.133 240.4 208.267 248.133 204.133C254.8 200.533 272.4 200.4 279.333 204Z" fill="#D2B97F"/>
<path d="M632 170.133C620.133 172.133 610.267 177.2 604.4 184.667C602.4 187.2 600.267 189.333 599.733 189.333C599.2 189.333 598.667 185.867 598.4 181.6L598 174H582.667H567.333V240V306L581.867 306.4C591.333 306.667 596.933 306.267 598.133 305.2C599.6 304 600 296.533 600 265.733C600 217.2 600.933 213.333 614.667 204.667C619.067 201.867 621.6 201.333 630 201.333C640.4 201.333 643.467 202.4 650.4 208.533C657.867 215.067 658 216 658.667 262.667L659.333 306L675.2 306.4C686.133 306.667 691.6 306.267 692.933 305.2C694.533 303.733 694.8 296.933 694.267 259.467C693.733 213.6 693.067 208.533 687.333 197.2C684.267 191.467 672.533 179.733 666.667 176.8C657.867 172.4 639.867 168.933 632 170.133Z" fill="#D2B97F"/>
<path d="M355.6 174.267C355.067 174.667 354.667 181.067 354.667 188.267V201.333H386.533C404.133 201.333 418.8 201.867 419.2 202.533C420.133 203.867 416.4 208.8 405.867 220.8C401.467 225.867 394.267 234.133 390 239.333C385.6 244.4 381.733 248.933 381.2 249.333C380.8 249.733 375.333 256 369.333 263.333C363.2 270.667 357.333 277.333 356.4 278C355.067 279.067 354.667 282.667 354.933 292.667L355.333 306L410.667 306.4C441.067 306.533 467.333 306.4 469.067 306C471.867 305.333 472 304.667 472 292.133C472 281.333 471.6 278.8 469.867 278.133C468.667 277.733 452.533 277.333 434 277.333C415.333 277.333 399.867 276.8 399.467 276.267C399.2 275.733 402.933 271.067 407.867 266C412.667 260.8 425.2 247.333 435.467 236C445.733 224.667 457.6 211.733 461.733 207.333L469.333 199.333L469.067 186.667L468.667 174L412.533 173.6C381.733 173.467 356 173.733 355.6 174.267Z" fill="#D2B97F"/>
<path d="M499.333 174.933C498.933 175.867 498.8 205.733 498.933 241.333L499.333 306L513.867 306.4C521.867 306.533 528.933 306.267 529.6 305.6C530.8 304.4 531.2 176.533 530 174.533C528.667 172.533 500 173.067 499.333 174.933Z" fill="#D2B97F"/>
<path d="M1051.6 174.133C1051.07 174.667 1050.67 196.8 1050.67 223.2C1050.67 263.333 1051.07 272 1052.67 275.2C1053.73 277.2 1054.67 279.733 1054.67 280.8C1054.67 283.2 1061.73 293.333 1065.6 296.667C1071.87 301.867 1077.2 305.333 1079.07 305.333C1080.13 305.333 1082.8 306.267 1084.8 307.333C1087.6 308.8 1092.93 309.333 1103.47 309.333C1121.2 309.333 1126.67 307.467 1137.87 297.2C1141.87 293.6 1145.47 291.2 1146 291.867C1146.4 292.667 1146.67 295.6 1146.53 298.4C1146.27 301.2 1146.67 304.133 1147.2 305.067C1148.67 307.467 1175.2 307.2 1177.2 304.8C1178.27 303.6 1178.53 285.067 1178.4 238.533L1178 174H1161.33H1144.67L1144 217.333C1143.33 259.733 1143.2 260.8 1140.27 265.6C1129.73 282.267 1105.73 285.467 1092.4 272.133C1084.27 263.867 1083.73 260.133 1082.8 214.667L1082 174L1067.2 173.6C1059.2 173.467 1052.13 173.733 1051.6 174.133Z" fill="#D2B97F"/>
<path fill-rule="evenodd" clip-rule="evenodd" d="M916 175C924.917 168.155 925.5 168 941.5 163.544L952 162.5H957C957 162.5 960.851 162.78 962.5 163.544C964.262 164.36 968.692 166.331 968.692 166.331L975.759 169.911L982.826 173.412L989.465 177.458L997.192 181.363L1002.19 184.363L1008.69 189.363L1014.19 193.363L1018.69 198.363L1022.31 205.922C1032.4 226.423 1032 246 1024.19 264.727C1023.12 266.885 1022 269.326 1022 270C1021.69 270.648 1019.75 274.573 1016.65 278.619C1010.87 286.442 999.426 295.883 991.35 299.524C979.908 304.784 976.677 305.324 959.312 305.863C943.832 306.268 940.198 305.863 933.333 303.436C923.641 300.199 921.487 298.985 911.795 291.702C900.757 283.474 891.604 270.122 888.777 258.253C885.546 244.361 884.604 234.38 886.085 227.502C889.45 211.047 890.45 208.52 891.459 207.002C891.82 205.723 892.469 204.979 893.084 204.034C893.084 199.313 908.193 179.451 916 175ZM991.484 217.251C987.177 209.564 980.042 202.82 972.773 199.583C968.466 197.695 963.889 196.886 956.486 196.886C947.601 196.886 945.178 197.425 938.852 201.067C930.91 205.383 928.487 207.81 923.775 216.442C919.602 224.13 919.333 247.733 923.372 255.69C930.371 269.178 943.563 277.81 957.562 277.81C970.754 277.81 981.254 271.74 989.465 259.332L993.5 250.5L994.715 237.348C994.715 224.939 994.176 222.377 991.484 217.251Z" fill="#D2B97F"/>
</svg>
