<?xml version="1.0" encoding="iso-8859-1"?>
<!-- Uploaded to: SVG Repo, www.svgrepo.com, Generator: SVG Repo Mixer Tools -->
<svg height="800px" width="800px" version="1.1" id="Layer_1" xmlns="http://www.w3.org/2000/svg" xmlns:xlink="http://www.w3.org/1999/xlink" 
	 viewBox="0 0 511.999 511.999" xml:space="preserve">
<path style="fill:#8CB7E8;" d="M449.008,236.626c22.23-22.23,43.76-61.036,54.84-98.863c14.617-49.883,9.369-90.65-14.779-114.797
	c-52.999-52.993-170.101-3.496-213.66,40.061c-40.964,40.965-46.833,103.907-17.671,151.209L8.333,463.641
	c-11.063,11.063-11.063,28.998,0,40.061c11.061,11.063,28.998,11.063,40.061,0.002l249.379-249.377
	c19.18,11.877,41.315,18.254,64.438,18.254C394.999,272.581,425.827,259.813,449.008,236.626z"/>
<path style="fill:#6398DE;" d="M503.848,137.763c14.617-49.881,9.369-90.65-14.779-114.797L8.333,503.702
	c11.061,11.063,28.998,11.063,40.061,0.002l249.379-249.377c19.18,11.877,41.315,18.254,64.438,18.254
	c32.786,0,63.616-12.768,86.798-35.955C471.239,214.396,492.768,175.589,503.848,137.763z"/>
</svg>